%TF.GenerationSoftware,KiCad,Pcbnew,9.0.3*%
%TF.CreationDate,2025-12-16T11:33:02+01:00*%
%TF.ProjectId,PTP_LV1,5054505f-4c56-4312-9e6b-696361645f70,rev?*%
%TF.SameCoordinates,Original*%
%TF.FileFunction,Copper,L1,Top*%
%TF.FilePolarity,Positive*%
%FSLAX46Y46*%
G04 Gerber Fmt 4.6, Leading zero omitted, Abs format (unit mm)*
G04 Created by KiCad (PCBNEW 9.0.3) date 2025-12-16 11:33:02*
%MOMM*%
%LPD*%
G01*
G04 APERTURE LIST*
G04 Aperture macros list*
%AMRoundRect*
0 Rectangle with rounded corners*
0 $1 Rounding radius*
0 $2 $3 $4 $5 $6 $7 $8 $9 X,Y pos of 4 corners*
0 Add a 4 corners polygon primitive as box body*
4,1,4,$2,$3,$4,$5,$6,$7,$8,$9,$2,$3,0*
0 Add four circle primitives for the rounded corners*
1,1,$1+$1,$2,$3*
1,1,$1+$1,$4,$5*
1,1,$1+$1,$6,$7*
1,1,$1+$1,$8,$9*
0 Add four rect primitives between the rounded corners*
20,1,$1+$1,$2,$3,$4,$5,0*
20,1,$1+$1,$4,$5,$6,$7,0*
20,1,$1+$1,$6,$7,$8,$9,0*
20,1,$1+$1,$8,$9,$2,$3,0*%
G04 Aperture macros list end*
%TA.AperFunction,SMDPad,CuDef*%
%ADD10RoundRect,0.150000X0.512500X0.150000X-0.512500X0.150000X-0.512500X-0.150000X0.512500X-0.150000X0*%
%TD*%
%TA.AperFunction,ComponentPad*%
%ADD11RoundRect,0.250000X-0.550000X-0.550000X0.550000X-0.550000X0.550000X0.550000X-0.550000X0.550000X0*%
%TD*%
%TA.AperFunction,ComponentPad*%
%ADD12C,1.600000*%
%TD*%
%TA.AperFunction,ComponentPad*%
%ADD13R,1.600000X1.600000*%
%TD*%
%TA.AperFunction,SMDPad,CuDef*%
%ADD14RoundRect,0.250000X-0.400000X-0.625000X0.400000X-0.625000X0.400000X0.625000X-0.400000X0.625000X0*%
%TD*%
%TA.AperFunction,SMDPad,CuDef*%
%ADD15RoundRect,0.250000X0.625000X-0.400000X0.625000X0.400000X-0.625000X0.400000X-0.625000X-0.400000X0*%
%TD*%
%TA.AperFunction,SMDPad,CuDef*%
%ADD16RoundRect,0.250000X0.650000X-0.412500X0.650000X0.412500X-0.650000X0.412500X-0.650000X-0.412500X0*%
%TD*%
%TA.AperFunction,ComponentPad*%
%ADD17RoundRect,0.250000X-0.950000X-0.550000X0.950000X-0.550000X0.950000X0.550000X-0.950000X0.550000X0*%
%TD*%
%TA.AperFunction,ComponentPad*%
%ADD18O,2.400000X1.600000*%
%TD*%
%TA.AperFunction,ComponentPad*%
%ADD19R,1.800000X1.800000*%
%TD*%
%TA.AperFunction,ComponentPad*%
%ADD20C,1.800000*%
%TD*%
%TA.AperFunction,ComponentPad*%
%ADD21RoundRect,0.250000X0.950000X0.550000X-0.950000X0.550000X-0.950000X-0.550000X0.950000X-0.550000X0*%
%TD*%
%TA.AperFunction,ComponentPad*%
%ADD22RoundRect,0.250001X-1.149999X-1.149999X1.149999X-1.149999X1.149999X1.149999X-1.149999X1.149999X0*%
%TD*%
%TA.AperFunction,ComponentPad*%
%ADD23C,2.800000*%
%TD*%
%TA.AperFunction,ComponentPad*%
%ADD24C,2.000000*%
%TD*%
%TA.AperFunction,ComponentPad*%
%ADD25O,3.500000X2.200000*%
%TD*%
%TA.AperFunction,ComponentPad*%
%ADD26R,2.500000X1.500000*%
%TD*%
%TA.AperFunction,ComponentPad*%
%ADD27O,2.500000X1.500000*%
%TD*%
%TA.AperFunction,ComponentPad*%
%ADD28RoundRect,0.249999X-0.850001X-0.850001X0.850001X-0.850001X0.850001X0.850001X-0.850001X0.850001X0*%
%TD*%
%TA.AperFunction,ComponentPad*%
%ADD29C,2.200000*%
%TD*%
%TA.AperFunction,ComponentPad*%
%ADD30RoundRect,0.250000X0.550000X0.550000X-0.550000X0.550000X-0.550000X-0.550000X0.550000X-0.550000X0*%
%TD*%
%TA.AperFunction,ComponentPad*%
%ADD31C,2.400000*%
%TD*%
%TA.AperFunction,ViaPad*%
%ADD32C,0.700000*%
%TD*%
%TA.AperFunction,ViaPad*%
%ADD33C,0.600000*%
%TD*%
%TA.AperFunction,Conductor*%
%ADD34C,0.500000*%
%TD*%
%TA.AperFunction,Conductor*%
%ADD35C,0.750000*%
%TD*%
%TA.AperFunction,Conductor*%
%ADD36C,1.000000*%
%TD*%
G04 APERTURE END LIST*
D10*
%TO.P,U6,1,A*%
%TO.N,Q1*%
X170637500Y-82450000D03*
%TO.P,U6,2,GND*%
%TO.N,GND*%
X170637500Y-81500000D03*
%TO.P,U6,3,B*%
%TO.N,Q3*%
X170637500Y-80550000D03*
%TO.P,U6,4,Output*%
%TO.N,Reset*%
X168362500Y-80550000D03*
%TO.P,U6,5,VCC*%
%TO.N,+5V*%
X168362500Y-81500000D03*
%TO.P,U6,6,C*%
%TO.N,Clock*%
X168362500Y-82450000D03*
%TD*%
D11*
%TO.P,U7,1,GND*%
%TO.N,GND*%
X117195000Y-97190000D03*
D12*
%TO.P,U7,2,TR*%
%TO.N,Net-(U7-THR)*%
X117195000Y-99730000D03*
%TO.P,U7,3,Q*%
%TO.N,555*%
X117195000Y-102270000D03*
%TO.P,U7,4,R*%
%TO.N,+5V*%
X117195000Y-104810000D03*
%TO.P,U7,5,CV*%
%TO.N,unconnected-(U7-CV-Pad5)*%
X124815000Y-104810000D03*
%TO.P,U7,6,THR*%
%TO.N,Net-(U7-THR)*%
X124815000Y-102270000D03*
%TO.P,U7,7,DIS*%
%TO.N,Net-(U7-DIS)*%
X124815000Y-99730000D03*
%TO.P,U7,8,VCC*%
%TO.N,+5V*%
X124815000Y-97190000D03*
%TD*%
D13*
%TO.P,U5,1,CA*%
%TO.N,+5V*%
X196500000Y-85500000D03*
D12*
%TO.P,U5,2,F*%
%TO.N,Net-(U5-F)*%
X196500000Y-88040000D03*
%TO.P,U5,3,G*%
%TO.N,Net-(U5-G)*%
X196500000Y-90580000D03*
%TO.P,U5,4,E*%
%TO.N,Net-(U5-E)*%
X196500000Y-93120000D03*
%TO.P,U5,5,D*%
%TO.N,Net-(U5-D)*%
X196500000Y-95660000D03*
%TO.P,U5,6,CA*%
%TO.N,+5V*%
X201580000Y-95660000D03*
%TO.P,U5,7,DP*%
%TO.N,unconnected-(U5-DP-Pad7)*%
X201580000Y-93120000D03*
%TO.P,U5,8,C*%
%TO.N,Net-(U5-C)*%
X201580000Y-90580000D03*
%TO.P,U5,9,B*%
%TO.N,Net-(U5-B)*%
X201580000Y-88040000D03*
%TO.P,U5,10,A*%
%TO.N,Net-(U5-A)*%
X201580000Y-85500000D03*
%TD*%
D14*
%TO.P,R18,1*%
%TO.N,Net-(U4-g)*%
X182000000Y-92000000D03*
%TO.P,R18,2*%
%TO.N,Net-(U5-G)*%
X185100000Y-92000000D03*
%TD*%
D15*
%TO.P,R7,1*%
%TO.N,+5V*%
X164000000Y-119050000D03*
%TO.P,R7,2*%
%TO.N,Clock*%
X164000000Y-115950000D03*
%TD*%
%TO.P,R13,1*%
%TO.N,Net-(R13-Pad1)*%
X160000000Y-119100000D03*
%TO.P,R13,2*%
%TO.N,Net-(SW2-A)*%
X160000000Y-116000000D03*
%TD*%
D16*
%TO.P,C5,1*%
%TO.N,Net-(U7-THR)*%
X130000000Y-103500000D03*
%TO.P,C5,2*%
%TO.N,GND*%
X130000000Y-100375000D03*
%TD*%
D14*
%TO.P,R17,1*%
%TO.N,Net-(U4-f)*%
X182000000Y-89000000D03*
%TO.P,R17,2*%
%TO.N,Net-(U5-F)*%
X185100000Y-89000000D03*
%TD*%
D17*
%TO.P,U4,1,B*%
%TO.N,Q1*%
X170380000Y-88220000D03*
D18*
%TO.P,U4,2,C*%
%TO.N,Q2*%
X170380000Y-90760000D03*
%TO.P,U4,3,LT*%
%TO.N,Net-(U4-BI)*%
X170380000Y-93300000D03*
%TO.P,U4,4,BI*%
X170380000Y-95840000D03*
%TO.P,U4,5,RBI*%
X170380000Y-98380000D03*
%TO.P,U4,6,D*%
%TO.N,Q3*%
X170380000Y-100920000D03*
%TO.P,U4,7,A*%
%TO.N,Q0*%
X170380000Y-103460000D03*
%TO.P,U4,8,GND*%
%TO.N,GND*%
X170380000Y-106000000D03*
%TO.P,U4,9,e*%
%TO.N,Net-(U4-e)*%
X178000000Y-106000000D03*
%TO.P,U4,10,d*%
%TO.N,Net-(U4-d)*%
X178000000Y-103460000D03*
%TO.P,U4,11,c*%
%TO.N,Net-(U4-c)*%
X178000000Y-100920000D03*
%TO.P,U4,12,b*%
%TO.N,Net-(U4-b)*%
X178000000Y-98380000D03*
%TO.P,U4,13,a*%
%TO.N,Net-(U4-a)*%
X178000000Y-95840000D03*
%TO.P,U4,14,g*%
%TO.N,Net-(U4-g)*%
X178000000Y-93300000D03*
%TO.P,U4,15,f*%
%TO.N,Net-(U4-f)*%
X178000000Y-90760000D03*
%TO.P,U4,16,VCC*%
%TO.N,+5V*%
X178000000Y-88220000D03*
%TD*%
D15*
%TO.P,R12,1*%
%TO.N,+5V*%
X176000000Y-119100000D03*
%TO.P,R12,2*%
%TO.N,Net-(U3B-J)*%
X176000000Y-116000000D03*
%TD*%
D19*
%TO.P,D2,1,K*%
%TO.N,Net-(D2-K)*%
X161500000Y-73975000D03*
D20*
%TO.P,D2,2,A*%
%TO.N,Q1*%
X161500000Y-76515000D03*
%TD*%
D16*
%TO.P,C4,1*%
%TO.N,+5V*%
X188062500Y-77062500D03*
%TO.P,C4,2*%
%TO.N,GND*%
X188062500Y-73937500D03*
%TD*%
D12*
%TO.P,R4,1*%
%TO.N,Net-(D5-K)*%
X174420000Y-69000000D03*
%TO.P,R4,2*%
%TO.N,GND*%
X174420000Y-58840000D03*
%TD*%
D19*
%TO.P,D1,1,K*%
%TO.N,Net-(D1-K)*%
X154000000Y-74000000D03*
D20*
%TO.P,D1,2,A*%
%TO.N,Q0*%
X154000000Y-76540000D03*
%TD*%
D14*
%TO.P,R5,1*%
%TO.N,Net-(U4-a)*%
X182000000Y-95000000D03*
%TO.P,R5,2*%
%TO.N,Net-(U5-A)*%
X185100000Y-95000000D03*
%TD*%
D21*
%TO.P,U1,1,FB*%
%TO.N,+5V*%
X138000000Y-73000000D03*
D18*
%TO.P,U1,2,SGND*%
%TO.N,GND*%
X138000000Y-70460000D03*
%TO.P,U1,3,~{ON}/OFF*%
X138000000Y-67920000D03*
%TO.P,U1,4,PGND*%
X138000000Y-65380000D03*
%TO.P,U1,5,VIN*%
%TO.N,VD*%
X130380000Y-65380000D03*
%TO.P,U1,6,NC*%
%TO.N,unconnected-(U1-NC-Pad6)*%
X130380000Y-67920000D03*
%TO.P,U1,7,OUT*%
%TO.N,Net-(D4-K)*%
X130380000Y-70460000D03*
%TO.P,U1,8,NC*%
%TO.N,unconnected-(U1-NC-Pad8)*%
X130380000Y-73000000D03*
%TD*%
D22*
%TO.P,J1,1,Pin_1*%
%TO.N,VD*%
X112500000Y-81617500D03*
D23*
%TO.P,J1,2,Pin_2*%
%TO.N,GND*%
X117500000Y-81617500D03*
%TD*%
D17*
%TO.P,U2,1,Q*%
%TO.N,Q0*%
X146560000Y-88220000D03*
D18*
%TO.P,U2,2,~{Q}*%
%TO.N,unconnected-(U2A-~{Q}-Pad2)*%
X146560000Y-90760000D03*
%TO.P,U2,3,C*%
%TO.N,Clock*%
X146560000Y-93300000D03*
%TO.P,U2,4,R*%
%TO.N,Reset*%
X146560000Y-95840000D03*
%TO.P,U2,5,K*%
%TO.N,Net-(U2A-J)*%
X146560000Y-98380000D03*
%TO.P,U2,6,J*%
X146560000Y-100920000D03*
%TO.P,U2,7,S*%
%TO.N,GND*%
X146560000Y-103460000D03*
%TO.P,U2,8,VSS*%
X146560000Y-106000000D03*
%TO.P,U2,9,S*%
X154180000Y-106000000D03*
%TO.P,U2,10,J*%
%TO.N,Net-(U2B-J)*%
X154180000Y-103460000D03*
%TO.P,U2,11,K*%
X154180000Y-100920000D03*
%TO.P,U2,12,R*%
%TO.N,Reset*%
X154180000Y-98380000D03*
%TO.P,U2,13,C*%
%TO.N,Q0*%
X154180000Y-95840000D03*
%TO.P,U2,14,~{Q}*%
%TO.N,unconnected-(U2B-~{Q}-Pad14)*%
X154180000Y-93300000D03*
%TO.P,U2,15,Q*%
%TO.N,Q1*%
X154180000Y-90760000D03*
%TO.P,U2,16,VDD*%
%TO.N,+5V*%
X154180000Y-88220000D03*
%TD*%
D24*
%TO.P,SW1,1,1*%
%TO.N,GND*%
X156500000Y-124500000D03*
X163000000Y-124500000D03*
%TO.P,SW1,2,2*%
%TO.N,Net-(R13-Pad1)*%
X156500000Y-129000000D03*
X163000000Y-129000000D03*
%TD*%
D14*
%TO.P,R6,1*%
%TO.N,Net-(U4-b)*%
X182000000Y-98000000D03*
%TO.P,R6,2*%
%TO.N,Net-(U5-B)*%
X185100000Y-98000000D03*
%TD*%
%TO.P,R11,1*%
%TO.N,+5V*%
X182000000Y-86000000D03*
%TO.P,R11,2*%
%TO.N,Net-(U3A-J)*%
X185100000Y-86000000D03*
%TD*%
%TO.P,R14,1*%
%TO.N,Net-(U4-d)*%
X182000000Y-104500000D03*
%TO.P,R14,2*%
%TO.N,Net-(U5-D)*%
X185100000Y-104500000D03*
%TD*%
D15*
%TO.P,R19,1*%
%TO.N,+5V*%
X110500000Y-105100000D03*
%TO.P,R19,2*%
%TO.N,Net-(U7-DIS)*%
X110500000Y-102000000D03*
%TD*%
D12*
%TO.P,R2,1*%
%TO.N,Net-(D2-K)*%
X160500000Y-68760000D03*
%TO.P,R2,2*%
%TO.N,GND*%
X160500000Y-58600000D03*
%TD*%
D11*
%TO.P,C1,1*%
%TO.N,VD*%
X123044888Y-62000000D03*
D12*
%TO.P,C1,2*%
%TO.N,GND*%
X125044888Y-62000000D03*
%TD*%
D14*
%TO.P,R16,1*%
%TO.N,Net-(U4-e)*%
X182000000Y-108000000D03*
%TO.P,R16,2*%
%TO.N,Net-(U5-E)*%
X185100000Y-108000000D03*
%TD*%
D17*
%TO.P,U3,1,Q*%
%TO.N,Q2*%
X158500000Y-88220000D03*
D18*
%TO.P,U3,2,~{Q}*%
%TO.N,unconnected-(U3A-~{Q}-Pad2)*%
X158500000Y-90760000D03*
%TO.P,U3,3,C*%
%TO.N,Q1*%
X158500000Y-93300000D03*
%TO.P,U3,4,R*%
%TO.N,Reset*%
X158500000Y-95840000D03*
%TO.P,U3,5,K*%
%TO.N,Net-(U3A-J)*%
X158500000Y-98380000D03*
%TO.P,U3,6,J*%
X158500000Y-100920000D03*
%TO.P,U3,7,S*%
%TO.N,GND*%
X158500000Y-103460000D03*
%TO.P,U3,8,VSS*%
X158500000Y-106000000D03*
%TO.P,U3,9,S*%
X166120000Y-106000000D03*
%TO.P,U3,10,J*%
%TO.N,Net-(U3B-J)*%
X166120000Y-103460000D03*
%TO.P,U3,11,K*%
X166120000Y-100920000D03*
%TO.P,U3,12,R*%
%TO.N,Reset*%
X166120000Y-98380000D03*
%TO.P,U3,13,C*%
%TO.N,Q2*%
X166120000Y-95840000D03*
%TO.P,U3,14,~{Q}*%
%TO.N,unconnected-(U3B-~{Q}-Pad14)*%
X166120000Y-93300000D03*
%TO.P,U3,15,Q*%
%TO.N,Q3*%
X166120000Y-90760000D03*
%TO.P,U3,16,VDD*%
%TO.N,+5V*%
X166120000Y-88220000D03*
%TD*%
D16*
%TO.P,C3,1*%
%TO.N,GND*%
X156000000Y-119125000D03*
%TO.P,C3,2*%
%TO.N,Net-(SW2-A)*%
X156000000Y-116000000D03*
%TD*%
D15*
%TO.P,R9,1*%
%TO.N,+5V*%
X168000000Y-119100000D03*
%TO.P,R9,2*%
%TO.N,Net-(U2A-J)*%
X168000000Y-116000000D03*
%TD*%
D25*
%TO.P,SW2,*%
%TO.N,*%
X138000000Y-98500000D03*
X138000000Y-106700000D03*
D26*
%TO.P,SW2,1,B*%
%TO.N,Clock*%
X138000000Y-100600000D03*
D27*
%TO.P,SW2,2,C*%
%TO.N,555*%
X138000000Y-102600000D03*
%TO.P,SW2,3,A*%
%TO.N,Net-(SW2-A)*%
X138000000Y-104600000D03*
%TD*%
D19*
%TO.P,D5,1,K*%
%TO.N,Net-(D5-K)*%
X176500000Y-74000000D03*
D20*
%TO.P,D5,2,A*%
%TO.N,Q3*%
X176500000Y-76540000D03*
%TD*%
D28*
%TO.P,D4,1,K*%
%TO.N,Net-(D4-K)*%
X126800000Y-81500000D03*
D29*
%TO.P,D4,2,A*%
%TO.N,GND*%
X139500000Y-81500000D03*
%TD*%
D30*
%TO.P,C2,1*%
%TO.N,+5V*%
X146455113Y-62500000D03*
D12*
%TO.P,C2,2*%
%TO.N,GND*%
X144455113Y-62500000D03*
%TD*%
%TO.P,R1,1*%
%TO.N,Net-(D1-K)*%
X155000000Y-68680000D03*
%TO.P,R1,2*%
%TO.N,GND*%
X155000000Y-58520000D03*
%TD*%
D14*
%TO.P,R8,1*%
%TO.N,Net-(U4-c)*%
X182000000Y-101000000D03*
%TO.P,R8,2*%
%TO.N,Net-(U5-C)*%
X185100000Y-101000000D03*
%TD*%
D15*
%TO.P,R15,1*%
%TO.N,+5V*%
X180000000Y-119100000D03*
%TO.P,R15,2*%
%TO.N,Net-(U4-BI)*%
X180000000Y-116000000D03*
%TD*%
%TO.P,R10,1*%
%TO.N,+5V*%
X172500000Y-119100000D03*
%TO.P,R10,2*%
%TO.N,Net-(U2B-J)*%
X172500000Y-116000000D03*
%TD*%
D31*
%TO.P,L1,1,1*%
%TO.N,Net-(D4-K)*%
X144500000Y-77000000D03*
%TO.P,L1,2,2*%
%TO.N,+5V*%
X144500000Y-74000000D03*
%TD*%
D12*
%TO.P,R3,1*%
%TO.N,Net-(D3-K)*%
X168000000Y-69000000D03*
%TO.P,R3,2*%
%TO.N,GND*%
X168000000Y-58840000D03*
%TD*%
D15*
%TO.P,R20,1*%
%TO.N,Net-(U7-DIS)*%
X110500000Y-99100000D03*
%TO.P,R20,2*%
%TO.N,Net-(U7-THR)*%
X110500000Y-96000000D03*
%TD*%
D19*
%TO.P,D3,1,K*%
%TO.N,Net-(D3-K)*%
X169000000Y-74000000D03*
D20*
%TO.P,D3,2,A*%
%TO.N,Q2*%
X169000000Y-76540000D03*
%TD*%
D32*
%TO.N,+5V*%
X162500000Y-89250000D03*
X169500000Y-83500000D03*
X137250000Y-78250000D03*
X123250000Y-92250000D03*
X122500000Y-95500000D03*
X166250000Y-86000000D03*
X166750000Y-81500000D03*
%TO.N,GND*%
X177750000Y-80500000D03*
X175250000Y-81250000D03*
%TO.N,+5V*%
X118000000Y-107000000D03*
X121000000Y-102500000D03*
%TO.N,Net-(U7-THR)*%
X115500000Y-100500000D03*
X113500000Y-99000000D03*
D33*
%TO.N,Reset*%
X161500000Y-91000000D03*
X163500000Y-86000000D03*
X164500000Y-81500000D03*
%TO.N,Clock*%
X149000000Y-92000000D03*
X152500000Y-86500000D03*
X157500000Y-85000000D03*
X159750000Y-85750000D03*
%TO.N,Q1*%
X170500000Y-85500000D03*
X171500000Y-83500000D03*
%TO.N,Q3*%
X168000000Y-91000000D03*
X171404590Y-91904590D03*
%TO.N,Net-(U3B-J)*%
X168500000Y-107500000D03*
X169000000Y-109500000D03*
%TO.N,Net-(U5-D)*%
X193000000Y-99000000D03*
X190500000Y-102500000D03*
%TO.N,Net-(U4-BI)*%
X173000000Y-104000000D03*
X174500000Y-105500000D03*
%TO.N,Net-(U5-E)*%
X199500000Y-96000000D03*
%TO.N,Reset*%
X161000000Y-97500000D03*
X164500000Y-98380000D03*
%TD*%
D34*
%TO.N,+5V*%
X202831000Y-94409000D02*
X201580000Y-95660000D01*
X202831000Y-84331000D02*
X202831000Y-94409000D01*
X202750000Y-84250000D02*
X202831000Y-84331000D01*
X197750000Y-84250000D02*
X202750000Y-84250000D01*
X196500000Y-85500000D02*
X197750000Y-84250000D01*
X201580000Y-106920000D02*
X201580000Y-95660000D01*
X189400000Y-119100000D02*
X201580000Y-106920000D01*
X180000000Y-119100000D02*
X189400000Y-119100000D01*
X192687500Y-77062500D02*
X188062500Y-77062500D01*
X192750000Y-77000000D02*
X192687500Y-77062500D01*
X196500000Y-80750000D02*
X192750000Y-77000000D01*
X196500000Y-85500000D02*
X196500000Y-80750000D01*
X162250000Y-89500000D02*
X162500000Y-89250000D01*
X155460000Y-89500000D02*
X162250000Y-89500000D01*
X154180000Y-88220000D02*
X155460000Y-89500000D01*
%TO.N,Net-(U3B-J)*%
X166120000Y-100920000D02*
X166120000Y-103460000D01*
%TO.N,Net-(U7-THR)*%
X123585000Y-103500000D02*
X122500000Y-103500000D01*
X124815000Y-102270000D02*
X123585000Y-103500000D01*
X130000000Y-103500000D02*
X122500000Y-103500000D01*
%TO.N,+5V*%
X169500000Y-80929100D02*
X169500000Y-82070900D01*
X169500000Y-82070900D02*
X168929100Y-81500000D01*
X169500000Y-83500000D02*
X169500000Y-82070900D01*
X123250000Y-92250000D02*
X137250000Y-78250000D01*
X123125000Y-95500000D02*
X122500000Y-95500000D01*
X124815000Y-97190000D02*
X123125000Y-95500000D01*
X166250000Y-88090000D02*
X166120000Y-88220000D01*
X166250000Y-86000000D02*
X166250000Y-88090000D01*
X168362500Y-81500000D02*
X166750000Y-81500000D01*
%TO.N,GND*%
X184312500Y-73937500D02*
X188062500Y-73937500D01*
X177750000Y-80500000D02*
X184312500Y-73937500D01*
X175000000Y-81500000D02*
X175250000Y-81250000D01*
X170637500Y-81500000D02*
X175000000Y-81500000D01*
X188062500Y-72482500D02*
X174420000Y-58840000D01*
X188062500Y-73937500D02*
X188062500Y-72482500D01*
%TO.N,+5V*%
X118000000Y-105615000D02*
X117195000Y-104810000D01*
X118000000Y-107000000D02*
X118000000Y-105615000D01*
X125314182Y-101000000D02*
X122500000Y-101000000D01*
X126066000Y-98441000D02*
X126066000Y-100248182D01*
X122500000Y-101000000D02*
X121000000Y-102500000D01*
X126066000Y-100248182D02*
X125314182Y-101000000D01*
X124815000Y-97190000D02*
X126066000Y-98441000D01*
X116905000Y-105100000D02*
X117195000Y-104810000D01*
X110500000Y-105100000D02*
X116905000Y-105100000D01*
%TO.N,GND*%
X118500000Y-94500000D02*
X117195000Y-95805000D01*
X124125000Y-94500000D02*
X118500000Y-94500000D01*
X117195000Y-95805000D02*
X117195000Y-97190000D01*
X130000000Y-100375000D02*
X124125000Y-94500000D01*
X156000000Y-124000000D02*
X156500000Y-124500000D01*
X156000000Y-119125000D02*
X156000000Y-124000000D01*
%TO.N,Q2*%
X173000000Y-85500000D02*
X172000000Y-84500000D01*
X172000000Y-84500000D02*
X163500000Y-84500000D01*
%TO.N,Clock*%
X140500000Y-101000000D02*
X140400000Y-101100000D01*
X140500000Y-100000000D02*
X140500000Y-101000000D01*
X140400000Y-101100000D02*
X139900000Y-100600000D01*
X140500000Y-100000000D02*
X143000000Y-97500000D01*
X140500000Y-101200000D02*
X140400000Y-101100000D01*
X140500000Y-103500000D02*
X140500000Y-101200000D01*
%TO.N,Net-(U2A-J)*%
X146560000Y-98380000D02*
X146560000Y-100920000D01*
%TO.N,Net-(U2B-J)*%
X154180000Y-100920000D02*
X154180000Y-103460000D01*
%TO.N,Net-(U3A-J)*%
X158500000Y-98380000D02*
X158500000Y-100920000D01*
%TO.N,Net-(U4-BI)*%
X170380000Y-93300000D02*
X170380000Y-95840000D01*
X170380000Y-95840000D02*
X170380000Y-98380000D01*
D35*
%TO.N,VD*%
X126500000Y-67000000D02*
X123000000Y-67000000D01*
X128120000Y-65380000D02*
X126500000Y-67000000D01*
X130380000Y-65380000D02*
X128120000Y-65380000D01*
D34*
%TO.N,Net-(R13-Pad1)*%
X161000000Y-127000000D02*
X158500000Y-127000000D01*
X158500000Y-127000000D02*
X156500000Y-129000000D01*
X163000000Y-129000000D02*
X161000000Y-127000000D01*
%TO.N,Net-(U7-THR)*%
X116425000Y-100500000D02*
X117195000Y-99730000D01*
X115500000Y-100500000D02*
X116425000Y-100500000D01*
X110500000Y-96000000D02*
X113500000Y-99000000D01*
%TO.N,Net-(U7-DIS)*%
X110500000Y-99100000D02*
X110500000Y-102000000D01*
X123564000Y-98479000D02*
X124815000Y-99730000D01*
X112500000Y-102000000D02*
X116021000Y-98479000D01*
X116021000Y-98479000D02*
X123564000Y-98479000D01*
X110500000Y-102000000D02*
X112500000Y-102000000D01*
%TO.N,+5V*%
X167950000Y-119050000D02*
X168000000Y-119100000D01*
X164000000Y-119050000D02*
X167950000Y-119050000D01*
X168000000Y-119100000D02*
X172500000Y-119100000D01*
X172500000Y-119100000D02*
X176000000Y-119100000D01*
X176000000Y-119100000D02*
X180000000Y-119100000D01*
%TO.N,Net-(R13-Pad1)*%
X160000000Y-125500000D02*
X158500000Y-127000000D01*
X160000000Y-119100000D02*
X160000000Y-125500000D01*
%TO.N,Net-(U7-THR)*%
X119500000Y-101500000D02*
X119000000Y-101000000D01*
X119000000Y-101000000D02*
X118500000Y-101000000D01*
X119000000Y-101000000D02*
X118465000Y-101000000D01*
X118465000Y-101000000D02*
X117195000Y-99730000D01*
X119500000Y-102500000D02*
X119500000Y-101500000D01*
X122500000Y-103500000D02*
X120500000Y-103500000D01*
X120500000Y-103500000D02*
X119500000Y-102500000D01*
%TO.N,555*%
X117925000Y-103000000D02*
X117195000Y-102270000D01*
X119000000Y-103000000D02*
X117925000Y-103000000D01*
X119000000Y-106000000D02*
X119000000Y-103000000D01*
X120500000Y-107500000D02*
X119000000Y-106000000D01*
X128060792Y-107500000D02*
X120500000Y-107500000D01*
X132960792Y-102600000D02*
X128060792Y-107500000D01*
X138000000Y-102600000D02*
X132960792Y-102600000D01*
%TO.N,Clock*%
X151500000Y-114500000D02*
X140500000Y-103500000D01*
X162550000Y-114500000D02*
X151500000Y-114500000D01*
X164000000Y-115950000D02*
X162550000Y-114500000D01*
%TO.N,Net-(SW2-A)*%
X160000000Y-116000000D02*
X156000000Y-116000000D01*
X149500000Y-113500000D02*
X140600000Y-104600000D01*
X140600000Y-104600000D02*
X138000000Y-104600000D01*
X152000000Y-116000000D02*
X149500000Y-113500000D01*
X156000000Y-116000000D02*
X152000000Y-116000000D01*
%TO.N,Reset*%
X162000000Y-91000000D02*
X161500000Y-91000000D01*
X163500000Y-89500000D02*
X162000000Y-91000000D01*
X163500000Y-86000000D02*
X163500000Y-89500000D01*
X165450000Y-80550000D02*
X164500000Y-81500000D01*
X168362500Y-80550000D02*
X165450000Y-80550000D01*
%TO.N,+5V*%
X168929100Y-81500000D02*
X168362500Y-81500000D01*
X169500000Y-80170900D02*
X169500000Y-80929100D01*
X170500000Y-79170900D02*
X169500000Y-80170900D01*
X169500000Y-80929100D02*
X168929100Y-81500000D01*
X170500000Y-66500000D02*
X170500000Y-79170900D01*
X166500000Y-62500000D02*
X170500000Y-66500000D01*
X146455113Y-62500000D02*
X166500000Y-62500000D01*
%TO.N,Clock*%
X148600000Y-93000000D02*
X149000000Y-93000000D01*
X148300000Y-93300000D02*
X148600000Y-93000000D01*
X148300000Y-93300000D02*
X146560000Y-93300000D01*
X149000000Y-92000000D02*
X149000000Y-93000000D01*
X154000000Y-85000000D02*
X157500000Y-85000000D01*
X152500000Y-86500000D02*
X154000000Y-85000000D01*
X163050000Y-82450000D02*
X159750000Y-85750000D01*
X168362500Y-82450000D02*
X163050000Y-82450000D01*
%TO.N,Q3*%
X170637500Y-80362500D02*
X170637500Y-80550000D01*
X175500000Y-79000000D02*
X172000000Y-79000000D01*
X172000000Y-79000000D02*
X170637500Y-80362500D01*
D36*
%TO.N,VD*%
X119250000Y-73000000D02*
X123000000Y-69250000D01*
X114000000Y-73000000D02*
X119250000Y-73000000D01*
X112500000Y-81617500D02*
X112500000Y-74500000D01*
X112500000Y-74500000D02*
X114000000Y-73000000D01*
X123000000Y-69250000D02*
X123000000Y-67000000D01*
X123044888Y-66955112D02*
X123044888Y-62000000D01*
X123000000Y-67000000D02*
X123044888Y-66955112D01*
%TO.N,GND*%
X138000000Y-67920000D02*
X138000000Y-65380000D01*
X138000000Y-70460000D02*
X138000000Y-67920000D01*
X160420000Y-58520000D02*
X160500000Y-58600000D01*
X167760000Y-58600000D02*
X168000000Y-58840000D01*
D34*
%TO.N,+5V*%
X184500000Y-77500000D02*
X184937500Y-77062500D01*
X184937500Y-77062500D02*
X188062500Y-77062500D01*
D36*
X138000000Y-73000000D02*
X143500000Y-73000000D01*
X143500000Y-73000000D02*
X144500000Y-74000000D01*
D34*
X181000000Y-86000000D02*
X182000000Y-86000000D01*
D36*
X146455113Y-72044887D02*
X146455113Y-62500000D01*
D34*
X182000000Y-86000000D02*
X182000000Y-82500000D01*
X182000000Y-82500000D02*
X184500000Y-80000000D01*
X178000000Y-88220000D02*
X178780000Y-88220000D01*
X184500000Y-80000000D02*
X184500000Y-77500000D01*
X178780000Y-88220000D02*
X181000000Y-86000000D01*
D36*
X144500000Y-74000000D02*
X146455113Y-72044887D01*
D34*
%TO.N,Q0*%
X157500000Y-94500000D02*
X157551000Y-94551000D01*
X164000000Y-99500000D02*
X164131000Y-99631000D01*
X146500000Y-82000000D02*
X146500000Y-82500000D01*
X146500000Y-82500000D02*
X146560000Y-82560000D01*
X162000000Y-97000000D02*
X164000000Y-99000000D01*
X151840000Y-95840000D02*
X154180000Y-95840000D01*
X146560000Y-82560000D02*
X146560000Y-88220000D01*
X168500000Y-102500000D02*
X169500000Y-103500000D01*
X157180000Y-94500000D02*
X157500000Y-94500000D01*
X164000000Y-99000000D02*
X164000000Y-99500000D01*
X148000000Y-80500000D02*
X146500000Y-82000000D01*
X159949000Y-94551000D02*
X160000000Y-94500000D01*
X150000000Y-94000000D02*
X151840000Y-95840000D01*
X170340000Y-103500000D02*
X170380000Y-103460000D01*
X150000000Y-91660000D02*
X150000000Y-94000000D01*
X167131000Y-99631000D02*
X168500000Y-101000000D01*
X154000000Y-76540000D02*
X150040000Y-80500000D01*
X162000000Y-96500000D02*
X162000000Y-97000000D01*
X150040000Y-80500000D02*
X148000000Y-80500000D01*
X146560000Y-88220000D02*
X150000000Y-91660000D01*
X160000000Y-94500000D02*
X162000000Y-96500000D01*
X168500000Y-101000000D02*
X168500000Y-102500000D01*
X157551000Y-94551000D02*
X159949000Y-94551000D01*
X164131000Y-99631000D02*
X167131000Y-99631000D01*
X154180000Y-95840000D02*
X155840000Y-95840000D01*
X169500000Y-103500000D02*
X170340000Y-103500000D01*
X155840000Y-95840000D02*
X157180000Y-94500000D01*
D36*
%TO.N,Net-(D1-K)*%
X155000000Y-70500000D02*
X154000000Y-71500000D01*
X154000000Y-71500000D02*
X154000000Y-74000000D01*
X155000000Y-68680000D02*
X155000000Y-70500000D01*
D34*
%TO.N,Q1*%
X160700000Y-93300000D02*
X164500000Y-89500000D01*
X157700000Y-92500000D02*
X158500000Y-93300000D01*
X152500000Y-91000000D02*
X152740000Y-90760000D01*
X171000000Y-82450000D02*
X171500000Y-82950000D01*
X171500000Y-82950000D02*
X171500000Y-83500000D01*
X152500000Y-84000000D02*
X152500000Y-85000000D01*
X154180000Y-90760000D02*
X155760000Y-90760000D01*
X152740000Y-90760000D02*
X154180000Y-90760000D01*
X170500000Y-85500000D02*
X170500000Y-88100000D01*
X159960000Y-76540000D02*
X152500000Y-84000000D01*
X169100000Y-89500000D02*
X170380000Y-88220000D01*
X151500000Y-90000000D02*
X152500000Y-91000000D01*
X158500000Y-93300000D02*
X160700000Y-93300000D01*
X164500000Y-89500000D02*
X169100000Y-89500000D01*
X152500000Y-85000000D02*
X151500000Y-86000000D01*
X170500000Y-88100000D02*
X170380000Y-88220000D01*
X155760000Y-90760000D02*
X156500000Y-91500000D01*
X151500000Y-86000000D02*
X151500000Y-90000000D01*
X156500000Y-92500000D02*
X157700000Y-92500000D01*
X161500000Y-76540000D02*
X159960000Y-76540000D01*
X156500000Y-91500000D02*
X156500000Y-92500000D01*
D36*
%TO.N,Net-(D2-K)*%
X160500000Y-70000000D02*
X161500000Y-71000000D01*
X161500000Y-71000000D02*
X161500000Y-74000000D01*
X160500000Y-68760000D02*
X160500000Y-70000000D01*
D34*
%TO.N,Q2*%
X169000000Y-76540000D02*
X167460000Y-76540000D01*
X173000000Y-85500000D02*
X173000000Y-88140000D01*
X159780000Y-88220000D02*
X163500000Y-84500000D01*
X158500000Y-88220000D02*
X159780000Y-88220000D01*
X158500000Y-85500000D02*
X158500000Y-88220000D01*
X168000000Y-94000000D02*
X167960000Y-94000000D01*
X167460000Y-76540000D02*
X158500000Y-85500000D01*
X167960000Y-94000000D02*
X166120000Y-95840000D01*
X166280000Y-96000000D02*
X166120000Y-95840000D01*
X168000000Y-92500000D02*
X168000000Y-94000000D01*
X170380000Y-90760000D02*
X169140000Y-92000000D01*
X173000000Y-88140000D02*
X170380000Y-90760000D01*
X168500000Y-92000000D02*
X168000000Y-92500000D01*
X169140000Y-92000000D02*
X168500000Y-92000000D01*
D36*
%TO.N,Net-(D3-K)*%
X169000000Y-71500000D02*
X169000000Y-74000000D01*
X168000000Y-70500000D02*
X169000000Y-71500000D01*
X168000000Y-69000000D02*
X168000000Y-70500000D01*
%TO.N,Net-(D4-K)*%
X134000000Y-75500000D02*
X135500000Y-77000000D01*
X128540000Y-70460000D02*
X126800000Y-72200000D01*
X133460000Y-70460000D02*
X134000000Y-71000000D01*
X130380000Y-70460000D02*
X133460000Y-70460000D01*
X135500000Y-77000000D02*
X144500000Y-77000000D01*
X126800000Y-72200000D02*
X126800000Y-81500000D01*
X130380000Y-70460000D02*
X128540000Y-70460000D01*
X134000000Y-71000000D02*
X134000000Y-75500000D01*
D34*
%TO.N,Q3*%
X176000000Y-79500000D02*
X176500000Y-80000000D01*
X170380000Y-100880000D02*
X167771000Y-98271000D01*
X176500000Y-86809181D02*
X171404590Y-91904590D01*
X166360000Y-91000000D02*
X166120000Y-90760000D01*
X176500000Y-76540000D02*
X176500000Y-79000000D01*
X167771000Y-97271000D02*
X167500000Y-97000000D01*
X167409000Y-97091000D02*
X164091000Y-97091000D01*
X176500000Y-79000000D02*
X176500000Y-80000000D01*
X167771000Y-98271000D02*
X167771000Y-97271000D01*
X168000000Y-91000000D02*
X166360000Y-91000000D01*
X175500000Y-79000000D02*
X176500000Y-79000000D01*
X164000000Y-92000000D02*
X164880000Y-92000000D01*
X164880000Y-92000000D02*
X166120000Y-90760000D01*
X164091000Y-97091000D02*
X163500000Y-96500000D01*
X175500000Y-79000000D02*
X176000000Y-79500000D01*
X163500000Y-92500000D02*
X164000000Y-92000000D01*
X167500000Y-97000000D02*
X167409000Y-97091000D01*
X170380000Y-100920000D02*
X170380000Y-100880000D01*
X163500000Y-96500000D02*
X163500000Y-92500000D01*
X176500000Y-80000000D02*
X176500000Y-86809181D01*
X176500000Y-79000000D02*
X176000000Y-79500000D01*
D36*
%TO.N,Net-(D5-K)*%
X176000000Y-70580000D02*
X176000000Y-73500000D01*
X176000000Y-73500000D02*
X176500000Y-74000000D01*
X174420000Y-69000000D02*
X176000000Y-70580000D01*
D34*
%TO.N,Net-(U5-A)*%
X197500000Y-92000000D02*
X198500000Y-91000000D01*
X198500000Y-91000000D02*
X198500000Y-88000000D01*
X195131000Y-91869000D02*
X197369000Y-91869000D01*
X201080000Y-86000000D02*
X201580000Y-85500000D01*
X185100000Y-95000000D02*
X192000000Y-95000000D01*
X198500000Y-88000000D02*
X200000000Y-86500000D01*
X200000000Y-86500000D02*
X200000000Y-86000000D01*
X192000000Y-95000000D02*
X195131000Y-91869000D01*
X197369000Y-91869000D02*
X197500000Y-92000000D01*
X200000000Y-86000000D02*
X201080000Y-86000000D01*
X185100000Y-95000000D02*
X185691000Y-94409000D01*
%TO.N,Net-(U4-a)*%
X178000000Y-95840000D02*
X179160000Y-95840000D01*
X182000000Y-95000000D02*
X182000000Y-95400000D01*
X180000000Y-95000000D02*
X182000000Y-95000000D01*
X179160000Y-95840000D02*
X180000000Y-95000000D01*
X178160000Y-96000000D02*
X178000000Y-95840000D01*
%TO.N,Net-(U5-B)*%
X201120000Y-88500000D02*
X201580000Y-88040000D01*
X195091000Y-94409000D02*
X196980182Y-94409000D01*
X199500000Y-91889182D02*
X199500000Y-89000000D01*
X185100000Y-98000000D02*
X191500000Y-98000000D01*
X196980182Y-94409000D02*
X199500000Y-91889182D01*
X200000000Y-88500000D02*
X201120000Y-88500000D01*
X200000000Y-88500000D02*
X199500000Y-89000000D01*
X191500000Y-98000000D02*
X195091000Y-94409000D01*
%TO.N,Net-(U4-b)*%
X180000000Y-98000000D02*
X182000000Y-98000000D01*
X179620000Y-98380000D02*
X180000000Y-98000000D01*
X178000000Y-98380000D02*
X179620000Y-98380000D01*
%TO.N,Clock*%
X144700000Y-93300000D02*
X146560000Y-93300000D01*
X143000000Y-97500000D02*
X143000000Y-95000000D01*
X143000000Y-95000000D02*
X144700000Y-93300000D01*
X138000000Y-100600000D02*
X139900000Y-100600000D01*
X139900000Y-100600000D02*
X140500000Y-100000000D01*
%TO.N,Net-(U5-C)*%
X193000000Y-101000000D02*
X200000000Y-94000000D01*
X200000000Y-92500000D02*
X201580000Y-90920000D01*
X200000000Y-94000000D02*
X200000000Y-92500000D01*
X201580000Y-90920000D02*
X201580000Y-90580000D01*
X185100000Y-101000000D02*
X193000000Y-101000000D01*
%TO.N,Net-(U4-c)*%
X180500000Y-101000000D02*
X182000000Y-101000000D01*
X178000000Y-100920000D02*
X179420000Y-100920000D01*
X179420000Y-100920000D02*
X180000000Y-101500000D01*
X180000000Y-101500000D02*
X180500000Y-101000000D01*
%TO.N,Net-(U2A-J)*%
X150500000Y-102500000D02*
X150500000Y-108500000D01*
X150500000Y-108500000D02*
X152500000Y-110500000D01*
X168000000Y-113000000D02*
X168000000Y-116000000D01*
X148920000Y-100920000D02*
X150500000Y-102500000D01*
X152500000Y-110500000D02*
X165500000Y-110500000D01*
X165500000Y-110500000D02*
X168000000Y-113000000D01*
X146560000Y-100920000D02*
X148920000Y-100920000D01*
%TO.N,Net-(U2B-J)*%
X155960000Y-103460000D02*
X154180000Y-103460000D01*
X166000000Y-109500000D02*
X157000000Y-109500000D01*
X172500000Y-116000000D02*
X166000000Y-109500000D01*
X156500000Y-104000000D02*
X155960000Y-103460000D01*
X156500000Y-109000000D02*
X156500000Y-104000000D01*
X157000000Y-109500000D02*
X156500000Y-109000000D01*
%TO.N,Net-(U3A-J)*%
X181000000Y-87500000D02*
X183600000Y-87500000D01*
X179000000Y-89500000D02*
X181000000Y-87500000D01*
X164000000Y-106420000D02*
X164000000Y-108500000D01*
X170049181Y-108500000D02*
X176000000Y-102549181D01*
X164000000Y-108500000D02*
X170049181Y-108500000D01*
X176000000Y-102549181D02*
X176000000Y-90500000D01*
X176000000Y-90500000D02*
X177000000Y-89500000D01*
X158500000Y-100920000D02*
X164000000Y-106420000D01*
X183600000Y-87500000D02*
X185100000Y-86000000D01*
X177000000Y-89500000D02*
X179000000Y-89500000D01*
%TO.N,Net-(U3B-J)*%
X171500000Y-109500000D02*
X176000000Y-114000000D01*
X168500000Y-105840000D02*
X168500000Y-107500000D01*
X166120000Y-103460000D02*
X168500000Y-105840000D01*
X169000000Y-109500000D02*
X171500000Y-109500000D01*
X176000000Y-114000000D02*
X176000000Y-116000000D01*
%TO.N,Net-(U4-d)*%
X179960000Y-103460000D02*
X181000000Y-104500000D01*
X178000000Y-103460000D02*
X179960000Y-103460000D01*
X181000000Y-104500000D02*
X182000000Y-104500000D01*
%TO.N,Net-(U5-D)*%
X185100000Y-104500000D02*
X187000000Y-104500000D01*
X196160000Y-96000000D02*
X196500000Y-95660000D01*
X187000000Y-104500000D02*
X189000000Y-102500000D01*
X189000000Y-102500000D02*
X190500000Y-102500000D01*
X195500000Y-96000000D02*
X196160000Y-96000000D01*
X195000000Y-97000000D02*
X195000000Y-96000000D01*
X195000000Y-96000000D02*
X195500000Y-96000000D01*
X193000000Y-99000000D02*
X195000000Y-97000000D01*
%TO.N,Net-(U4-BI)*%
X173000000Y-101000000D02*
X173000000Y-104000000D01*
X179000000Y-113500000D02*
X180000000Y-114500000D01*
X170380000Y-98380000D02*
X173000000Y-101000000D01*
X179000000Y-113500000D02*
X174500000Y-109000000D01*
X180000000Y-114500000D02*
X180000000Y-116000000D01*
X174500000Y-109000000D02*
X174500000Y-105500000D01*
%TO.N,Net-(U4-e)*%
X180000000Y-108000000D02*
X182000000Y-108000000D01*
X178000000Y-106000000D02*
X180000000Y-108000000D01*
%TO.N,Net-(U5-E)*%
X185100000Y-108000000D02*
X188000000Y-108000000D01*
X199500000Y-96500000D02*
X199500000Y-96000000D01*
X188000000Y-108000000D02*
X199500000Y-96500000D01*
%TO.N,Net-(U4-f)*%
X178740000Y-90760000D02*
X180500000Y-89000000D01*
X180500000Y-89000000D02*
X182000000Y-89000000D01*
X178000000Y-90760000D02*
X178740000Y-90760000D01*
%TO.N,Net-(U5-F)*%
X192000000Y-88000000D02*
X192040000Y-88040000D01*
X192040000Y-88040000D02*
X196500000Y-88040000D01*
X185100000Y-89000000D02*
X191000000Y-89000000D01*
X191000000Y-89000000D02*
X192000000Y-88000000D01*
%TO.N,Net-(U4-g)*%
X178000000Y-93300000D02*
X178700000Y-93300000D01*
X180000000Y-92000000D02*
X182000000Y-92000000D01*
X178700000Y-93300000D02*
X180000000Y-92000000D01*
%TO.N,Net-(U5-G)*%
X193920000Y-90580000D02*
X196500000Y-90580000D01*
X192500000Y-92000000D02*
X193920000Y-90580000D01*
X185100000Y-92000000D02*
X192500000Y-92000000D01*
%TO.N,Reset*%
X146560000Y-95840000D02*
X149340000Y-95840000D01*
X158500000Y-95840000D02*
X159340000Y-95840000D01*
X159340000Y-95840000D02*
X161000000Y-97500000D01*
X164500000Y-98380000D02*
X166120000Y-98380000D01*
X149340000Y-95840000D02*
X151880000Y-98380000D01*
X155960000Y-98380000D02*
X158500000Y-95840000D01*
X151880000Y-98380000D02*
X154180000Y-98380000D01*
X154180000Y-98380000D02*
X155960000Y-98380000D01*
%TD*%
M02*
