%TF.GenerationSoftware,KiCad,Pcbnew,9.0.3*%
%TF.CreationDate,2025-12-16T11:33:02+01:00*%
%TF.ProjectId,PTP_LV1,5054505f-4c56-4312-9e6b-696361645f70,rev?*%
%TF.SameCoordinates,Original*%
%TF.FileFunction,Legend,Top*%
%TF.FilePolarity,Positive*%
%FSLAX46Y46*%
G04 Gerber Fmt 4.6, Leading zero omitted, Abs format (unit mm)*
G04 Created by KiCad (PCBNEW 9.0.3) date 2025-12-16 11:33:02*
%MOMM*%
%LPD*%
G01*
G04 APERTURE LIST*
%ADD10C,0.150000*%
%ADD11C,0.120000*%
G04 APERTURE END LIST*
D10*
X113238095Y-123954819D02*
X113238095Y-122954819D01*
X113238095Y-123431009D02*
X113809523Y-123431009D01*
X113809523Y-123954819D02*
X113809523Y-122954819D01*
X114714285Y-123288152D02*
X114714285Y-123954819D01*
X114476190Y-122907200D02*
X114238095Y-123621485D01*
X114238095Y-123621485D02*
X114857142Y-123621485D01*
X168738095Y-83354819D02*
X168738095Y-84164342D01*
X168738095Y-84164342D02*
X168785714Y-84259580D01*
X168785714Y-84259580D02*
X168833333Y-84307200D01*
X168833333Y-84307200D02*
X168928571Y-84354819D01*
X168928571Y-84354819D02*
X169119047Y-84354819D01*
X169119047Y-84354819D02*
X169214285Y-84307200D01*
X169214285Y-84307200D02*
X169261904Y-84259580D01*
X169261904Y-84259580D02*
X169309523Y-84164342D01*
X169309523Y-84164342D02*
X169309523Y-83354819D01*
X170214285Y-83354819D02*
X170023809Y-83354819D01*
X170023809Y-83354819D02*
X169928571Y-83402438D01*
X169928571Y-83402438D02*
X169880952Y-83450057D01*
X169880952Y-83450057D02*
X169785714Y-83592914D01*
X169785714Y-83592914D02*
X169738095Y-83783390D01*
X169738095Y-83783390D02*
X169738095Y-84164342D01*
X169738095Y-84164342D02*
X169785714Y-84259580D01*
X169785714Y-84259580D02*
X169833333Y-84307200D01*
X169833333Y-84307200D02*
X169928571Y-84354819D01*
X169928571Y-84354819D02*
X170119047Y-84354819D01*
X170119047Y-84354819D02*
X170214285Y-84307200D01*
X170214285Y-84307200D02*
X170261904Y-84259580D01*
X170261904Y-84259580D02*
X170309523Y-84164342D01*
X170309523Y-84164342D02*
X170309523Y-83926247D01*
X170309523Y-83926247D02*
X170261904Y-83831009D01*
X170261904Y-83831009D02*
X170214285Y-83783390D01*
X170214285Y-83783390D02*
X170119047Y-83735771D01*
X170119047Y-83735771D02*
X169928571Y-83735771D01*
X169928571Y-83735771D02*
X169833333Y-83783390D01*
X169833333Y-83783390D02*
X169785714Y-83831009D01*
X169785714Y-83831009D02*
X169738095Y-83926247D01*
X120243095Y-94314819D02*
X120243095Y-95124342D01*
X120243095Y-95124342D02*
X120290714Y-95219580D01*
X120290714Y-95219580D02*
X120338333Y-95267200D01*
X120338333Y-95267200D02*
X120433571Y-95314819D01*
X120433571Y-95314819D02*
X120624047Y-95314819D01*
X120624047Y-95314819D02*
X120719285Y-95267200D01*
X120719285Y-95267200D02*
X120766904Y-95219580D01*
X120766904Y-95219580D02*
X120814523Y-95124342D01*
X120814523Y-95124342D02*
X120814523Y-94314819D01*
X121195476Y-94314819D02*
X121862142Y-94314819D01*
X121862142Y-94314819D02*
X121433571Y-95314819D01*
X198278095Y-82795819D02*
X198278095Y-83605342D01*
X198278095Y-83605342D02*
X198325714Y-83700580D01*
X198325714Y-83700580D02*
X198373333Y-83748200D01*
X198373333Y-83748200D02*
X198468571Y-83795819D01*
X198468571Y-83795819D02*
X198659047Y-83795819D01*
X198659047Y-83795819D02*
X198754285Y-83748200D01*
X198754285Y-83748200D02*
X198801904Y-83700580D01*
X198801904Y-83700580D02*
X198849523Y-83605342D01*
X198849523Y-83605342D02*
X198849523Y-82795819D01*
X199801904Y-82795819D02*
X199325714Y-82795819D01*
X199325714Y-82795819D02*
X199278095Y-83272009D01*
X199278095Y-83272009D02*
X199325714Y-83224390D01*
X199325714Y-83224390D02*
X199420952Y-83176771D01*
X199420952Y-83176771D02*
X199659047Y-83176771D01*
X199659047Y-83176771D02*
X199754285Y-83224390D01*
X199754285Y-83224390D02*
X199801904Y-83272009D01*
X199801904Y-83272009D02*
X199849523Y-83367247D01*
X199849523Y-83367247D02*
X199849523Y-83605342D01*
X199849523Y-83605342D02*
X199801904Y-83700580D01*
X199801904Y-83700580D02*
X199754285Y-83748200D01*
X199754285Y-83748200D02*
X199659047Y-83795819D01*
X199659047Y-83795819D02*
X199420952Y-83795819D01*
X199420952Y-83795819D02*
X199325714Y-83748200D01*
X199325714Y-83748200D02*
X199278095Y-83700580D01*
X186857142Y-93454819D02*
X186523809Y-92978628D01*
X186285714Y-93454819D02*
X186285714Y-92454819D01*
X186285714Y-92454819D02*
X186666666Y-92454819D01*
X186666666Y-92454819D02*
X186761904Y-92502438D01*
X186761904Y-92502438D02*
X186809523Y-92550057D01*
X186809523Y-92550057D02*
X186857142Y-92645295D01*
X186857142Y-92645295D02*
X186857142Y-92788152D01*
X186857142Y-92788152D02*
X186809523Y-92883390D01*
X186809523Y-92883390D02*
X186761904Y-92931009D01*
X186761904Y-92931009D02*
X186666666Y-92978628D01*
X186666666Y-92978628D02*
X186285714Y-92978628D01*
X187809523Y-93454819D02*
X187238095Y-93454819D01*
X187523809Y-93454819D02*
X187523809Y-92454819D01*
X187523809Y-92454819D02*
X187428571Y-92597676D01*
X187428571Y-92597676D02*
X187333333Y-92692914D01*
X187333333Y-92692914D02*
X187238095Y-92740533D01*
X188380952Y-92883390D02*
X188285714Y-92835771D01*
X188285714Y-92835771D02*
X188238095Y-92788152D01*
X188238095Y-92788152D02*
X188190476Y-92692914D01*
X188190476Y-92692914D02*
X188190476Y-92645295D01*
X188190476Y-92645295D02*
X188238095Y-92550057D01*
X188238095Y-92550057D02*
X188285714Y-92502438D01*
X188285714Y-92502438D02*
X188380952Y-92454819D01*
X188380952Y-92454819D02*
X188571428Y-92454819D01*
X188571428Y-92454819D02*
X188666666Y-92502438D01*
X188666666Y-92502438D02*
X188714285Y-92550057D01*
X188714285Y-92550057D02*
X188761904Y-92645295D01*
X188761904Y-92645295D02*
X188761904Y-92692914D01*
X188761904Y-92692914D02*
X188714285Y-92788152D01*
X188714285Y-92788152D02*
X188666666Y-92835771D01*
X188666666Y-92835771D02*
X188571428Y-92883390D01*
X188571428Y-92883390D02*
X188380952Y-92883390D01*
X188380952Y-92883390D02*
X188285714Y-92931009D01*
X188285714Y-92931009D02*
X188238095Y-92978628D01*
X188238095Y-92978628D02*
X188190476Y-93073866D01*
X188190476Y-93073866D02*
X188190476Y-93264342D01*
X188190476Y-93264342D02*
X188238095Y-93359580D01*
X188238095Y-93359580D02*
X188285714Y-93407200D01*
X188285714Y-93407200D02*
X188380952Y-93454819D01*
X188380952Y-93454819D02*
X188571428Y-93454819D01*
X188571428Y-93454819D02*
X188666666Y-93407200D01*
X188666666Y-93407200D02*
X188714285Y-93359580D01*
X188714285Y-93359580D02*
X188761904Y-93264342D01*
X188761904Y-93264342D02*
X188761904Y-93073866D01*
X188761904Y-93073866D02*
X188714285Y-92978628D01*
X188714285Y-92978628D02*
X188666666Y-92931009D01*
X188666666Y-92931009D02*
X188571428Y-92883390D01*
X162624819Y-117666666D02*
X162148628Y-117999999D01*
X162624819Y-118238094D02*
X161624819Y-118238094D01*
X161624819Y-118238094D02*
X161624819Y-117857142D01*
X161624819Y-117857142D02*
X161672438Y-117761904D01*
X161672438Y-117761904D02*
X161720057Y-117714285D01*
X161720057Y-117714285D02*
X161815295Y-117666666D01*
X161815295Y-117666666D02*
X161958152Y-117666666D01*
X161958152Y-117666666D02*
X162053390Y-117714285D01*
X162053390Y-117714285D02*
X162101009Y-117761904D01*
X162101009Y-117761904D02*
X162148628Y-117857142D01*
X162148628Y-117857142D02*
X162148628Y-118238094D01*
X161624819Y-117333332D02*
X161624819Y-116666666D01*
X161624819Y-116666666D02*
X162624819Y-117095237D01*
X158454819Y-120142857D02*
X157978628Y-120476190D01*
X158454819Y-120714285D02*
X157454819Y-120714285D01*
X157454819Y-120714285D02*
X157454819Y-120333333D01*
X157454819Y-120333333D02*
X157502438Y-120238095D01*
X157502438Y-120238095D02*
X157550057Y-120190476D01*
X157550057Y-120190476D02*
X157645295Y-120142857D01*
X157645295Y-120142857D02*
X157788152Y-120142857D01*
X157788152Y-120142857D02*
X157883390Y-120190476D01*
X157883390Y-120190476D02*
X157931009Y-120238095D01*
X157931009Y-120238095D02*
X157978628Y-120333333D01*
X157978628Y-120333333D02*
X157978628Y-120714285D01*
X158454819Y-119190476D02*
X158454819Y-119761904D01*
X158454819Y-119476190D02*
X157454819Y-119476190D01*
X157454819Y-119476190D02*
X157597676Y-119571428D01*
X157597676Y-119571428D02*
X157692914Y-119666666D01*
X157692914Y-119666666D02*
X157740533Y-119761904D01*
X157454819Y-118857142D02*
X157454819Y-118238095D01*
X157454819Y-118238095D02*
X157835771Y-118571428D01*
X157835771Y-118571428D02*
X157835771Y-118428571D01*
X157835771Y-118428571D02*
X157883390Y-118333333D01*
X157883390Y-118333333D02*
X157931009Y-118285714D01*
X157931009Y-118285714D02*
X158026247Y-118238095D01*
X158026247Y-118238095D02*
X158264342Y-118238095D01*
X158264342Y-118238095D02*
X158359580Y-118285714D01*
X158359580Y-118285714D02*
X158407200Y-118333333D01*
X158407200Y-118333333D02*
X158454819Y-118428571D01*
X158454819Y-118428571D02*
X158454819Y-118714285D01*
X158454819Y-118714285D02*
X158407200Y-118809523D01*
X158407200Y-118809523D02*
X158359580Y-118857142D01*
X127459580Y-102104166D02*
X127507200Y-102151785D01*
X127507200Y-102151785D02*
X127554819Y-102294642D01*
X127554819Y-102294642D02*
X127554819Y-102389880D01*
X127554819Y-102389880D02*
X127507200Y-102532737D01*
X127507200Y-102532737D02*
X127411961Y-102627975D01*
X127411961Y-102627975D02*
X127316723Y-102675594D01*
X127316723Y-102675594D02*
X127126247Y-102723213D01*
X127126247Y-102723213D02*
X126983390Y-102723213D01*
X126983390Y-102723213D02*
X126792914Y-102675594D01*
X126792914Y-102675594D02*
X126697676Y-102627975D01*
X126697676Y-102627975D02*
X126602438Y-102532737D01*
X126602438Y-102532737D02*
X126554819Y-102389880D01*
X126554819Y-102389880D02*
X126554819Y-102294642D01*
X126554819Y-102294642D02*
X126602438Y-102151785D01*
X126602438Y-102151785D02*
X126650057Y-102104166D01*
X126554819Y-101199404D02*
X126554819Y-101675594D01*
X126554819Y-101675594D02*
X127031009Y-101723213D01*
X127031009Y-101723213D02*
X126983390Y-101675594D01*
X126983390Y-101675594D02*
X126935771Y-101580356D01*
X126935771Y-101580356D02*
X126935771Y-101342261D01*
X126935771Y-101342261D02*
X126983390Y-101247023D01*
X126983390Y-101247023D02*
X127031009Y-101199404D01*
X127031009Y-101199404D02*
X127126247Y-101151785D01*
X127126247Y-101151785D02*
X127364342Y-101151785D01*
X127364342Y-101151785D02*
X127459580Y-101199404D01*
X127459580Y-101199404D02*
X127507200Y-101247023D01*
X127507200Y-101247023D02*
X127554819Y-101342261D01*
X127554819Y-101342261D02*
X127554819Y-101580356D01*
X127554819Y-101580356D02*
X127507200Y-101675594D01*
X127507200Y-101675594D02*
X127459580Y-101723213D01*
X186857142Y-90454819D02*
X186523809Y-89978628D01*
X186285714Y-90454819D02*
X186285714Y-89454819D01*
X186285714Y-89454819D02*
X186666666Y-89454819D01*
X186666666Y-89454819D02*
X186761904Y-89502438D01*
X186761904Y-89502438D02*
X186809523Y-89550057D01*
X186809523Y-89550057D02*
X186857142Y-89645295D01*
X186857142Y-89645295D02*
X186857142Y-89788152D01*
X186857142Y-89788152D02*
X186809523Y-89883390D01*
X186809523Y-89883390D02*
X186761904Y-89931009D01*
X186761904Y-89931009D02*
X186666666Y-89978628D01*
X186666666Y-89978628D02*
X186285714Y-89978628D01*
X187809523Y-90454819D02*
X187238095Y-90454819D01*
X187523809Y-90454819D02*
X187523809Y-89454819D01*
X187523809Y-89454819D02*
X187428571Y-89597676D01*
X187428571Y-89597676D02*
X187333333Y-89692914D01*
X187333333Y-89692914D02*
X187238095Y-89740533D01*
X188142857Y-89454819D02*
X188809523Y-89454819D01*
X188809523Y-89454819D02*
X188380952Y-90454819D01*
X173238095Y-84454819D02*
X173238095Y-85264342D01*
X173238095Y-85264342D02*
X173285714Y-85359580D01*
X173285714Y-85359580D02*
X173333333Y-85407200D01*
X173333333Y-85407200D02*
X173428571Y-85454819D01*
X173428571Y-85454819D02*
X173619047Y-85454819D01*
X173619047Y-85454819D02*
X173714285Y-85407200D01*
X173714285Y-85407200D02*
X173761904Y-85359580D01*
X173761904Y-85359580D02*
X173809523Y-85264342D01*
X173809523Y-85264342D02*
X173809523Y-84454819D01*
X174714285Y-84788152D02*
X174714285Y-85454819D01*
X174476190Y-84407200D02*
X174238095Y-85121485D01*
X174238095Y-85121485D02*
X174857142Y-85121485D01*
X174624819Y-118192857D02*
X174148628Y-118526190D01*
X174624819Y-118764285D02*
X173624819Y-118764285D01*
X173624819Y-118764285D02*
X173624819Y-118383333D01*
X173624819Y-118383333D02*
X173672438Y-118288095D01*
X173672438Y-118288095D02*
X173720057Y-118240476D01*
X173720057Y-118240476D02*
X173815295Y-118192857D01*
X173815295Y-118192857D02*
X173958152Y-118192857D01*
X173958152Y-118192857D02*
X174053390Y-118240476D01*
X174053390Y-118240476D02*
X174101009Y-118288095D01*
X174101009Y-118288095D02*
X174148628Y-118383333D01*
X174148628Y-118383333D02*
X174148628Y-118764285D01*
X174624819Y-117240476D02*
X174624819Y-117811904D01*
X174624819Y-117526190D02*
X173624819Y-117526190D01*
X173624819Y-117526190D02*
X173767676Y-117621428D01*
X173767676Y-117621428D02*
X173862914Y-117716666D01*
X173862914Y-117716666D02*
X173910533Y-117811904D01*
X173720057Y-116859523D02*
X173672438Y-116811904D01*
X173672438Y-116811904D02*
X173624819Y-116716666D01*
X173624819Y-116716666D02*
X173624819Y-116478571D01*
X173624819Y-116478571D02*
X173672438Y-116383333D01*
X173672438Y-116383333D02*
X173720057Y-116335714D01*
X173720057Y-116335714D02*
X173815295Y-116288095D01*
X173815295Y-116288095D02*
X173910533Y-116288095D01*
X173910533Y-116288095D02*
X174053390Y-116335714D01*
X174053390Y-116335714D02*
X174624819Y-116907142D01*
X174624819Y-116907142D02*
X174624819Y-116288095D01*
X158261905Y-71704819D02*
X158261905Y-70704819D01*
X158261905Y-70704819D02*
X158500000Y-70704819D01*
X158500000Y-70704819D02*
X158642857Y-70752438D01*
X158642857Y-70752438D02*
X158738095Y-70847676D01*
X158738095Y-70847676D02*
X158785714Y-70942914D01*
X158785714Y-70942914D02*
X158833333Y-71133390D01*
X158833333Y-71133390D02*
X158833333Y-71276247D01*
X158833333Y-71276247D02*
X158785714Y-71466723D01*
X158785714Y-71466723D02*
X158738095Y-71561961D01*
X158738095Y-71561961D02*
X158642857Y-71657200D01*
X158642857Y-71657200D02*
X158500000Y-71704819D01*
X158500000Y-71704819D02*
X158261905Y-71704819D01*
X159214286Y-70800057D02*
X159261905Y-70752438D01*
X159261905Y-70752438D02*
X159357143Y-70704819D01*
X159357143Y-70704819D02*
X159595238Y-70704819D01*
X159595238Y-70704819D02*
X159690476Y-70752438D01*
X159690476Y-70752438D02*
X159738095Y-70800057D01*
X159738095Y-70800057D02*
X159785714Y-70895295D01*
X159785714Y-70895295D02*
X159785714Y-70990533D01*
X159785714Y-70990533D02*
X159738095Y-71133390D01*
X159738095Y-71133390D02*
X159166667Y-71704819D01*
X159166667Y-71704819D02*
X159785714Y-71704819D01*
X113238095Y-59954819D02*
X113238095Y-58954819D01*
X113238095Y-59431009D02*
X113809523Y-59431009D01*
X113809523Y-59954819D02*
X113809523Y-58954819D01*
X114809523Y-59954819D02*
X114238095Y-59954819D01*
X114523809Y-59954819D02*
X114523809Y-58954819D01*
X114523809Y-58954819D02*
X114428571Y-59097676D01*
X114428571Y-59097676D02*
X114333333Y-59192914D01*
X114333333Y-59192914D02*
X114238095Y-59240533D01*
X185522080Y-75666666D02*
X185569700Y-75714285D01*
X185569700Y-75714285D02*
X185617319Y-75857142D01*
X185617319Y-75857142D02*
X185617319Y-75952380D01*
X185617319Y-75952380D02*
X185569700Y-76095237D01*
X185569700Y-76095237D02*
X185474461Y-76190475D01*
X185474461Y-76190475D02*
X185379223Y-76238094D01*
X185379223Y-76238094D02*
X185188747Y-76285713D01*
X185188747Y-76285713D02*
X185045890Y-76285713D01*
X185045890Y-76285713D02*
X184855414Y-76238094D01*
X184855414Y-76238094D02*
X184760176Y-76190475D01*
X184760176Y-76190475D02*
X184664938Y-76095237D01*
X184664938Y-76095237D02*
X184617319Y-75952380D01*
X184617319Y-75952380D02*
X184617319Y-75857142D01*
X184617319Y-75857142D02*
X184664938Y-75714285D01*
X184664938Y-75714285D02*
X184712557Y-75666666D01*
X184950652Y-74809523D02*
X185617319Y-74809523D01*
X184569700Y-75047618D02*
X185283985Y-75285713D01*
X185283985Y-75285713D02*
X185283985Y-74666666D01*
X172504819Y-64086666D02*
X172028628Y-64419999D01*
X172504819Y-64658094D02*
X171504819Y-64658094D01*
X171504819Y-64658094D02*
X171504819Y-64277142D01*
X171504819Y-64277142D02*
X171552438Y-64181904D01*
X171552438Y-64181904D02*
X171600057Y-64134285D01*
X171600057Y-64134285D02*
X171695295Y-64086666D01*
X171695295Y-64086666D02*
X171838152Y-64086666D01*
X171838152Y-64086666D02*
X171933390Y-64134285D01*
X171933390Y-64134285D02*
X171981009Y-64181904D01*
X171981009Y-64181904D02*
X172028628Y-64277142D01*
X172028628Y-64277142D02*
X172028628Y-64658094D01*
X171838152Y-63229523D02*
X172504819Y-63229523D01*
X171457200Y-63467618D02*
X172171485Y-63705713D01*
X172171485Y-63705713D02*
X172171485Y-63086666D01*
X150761905Y-71704819D02*
X150761905Y-70704819D01*
X150761905Y-70704819D02*
X151000000Y-70704819D01*
X151000000Y-70704819D02*
X151142857Y-70752438D01*
X151142857Y-70752438D02*
X151238095Y-70847676D01*
X151238095Y-70847676D02*
X151285714Y-70942914D01*
X151285714Y-70942914D02*
X151333333Y-71133390D01*
X151333333Y-71133390D02*
X151333333Y-71276247D01*
X151333333Y-71276247D02*
X151285714Y-71466723D01*
X151285714Y-71466723D02*
X151238095Y-71561961D01*
X151238095Y-71561961D02*
X151142857Y-71657200D01*
X151142857Y-71657200D02*
X151000000Y-71704819D01*
X151000000Y-71704819D02*
X150761905Y-71704819D01*
X152285714Y-71704819D02*
X151714286Y-71704819D01*
X152000000Y-71704819D02*
X152000000Y-70704819D01*
X152000000Y-70704819D02*
X151904762Y-70847676D01*
X151904762Y-70847676D02*
X151809524Y-70942914D01*
X151809524Y-70942914D02*
X151714286Y-70990533D01*
X197238095Y-59954819D02*
X197238095Y-58954819D01*
X197238095Y-59431009D02*
X197809523Y-59431009D01*
X197809523Y-59954819D02*
X197809523Y-58954819D01*
X198238095Y-59050057D02*
X198285714Y-59002438D01*
X198285714Y-59002438D02*
X198380952Y-58954819D01*
X198380952Y-58954819D02*
X198619047Y-58954819D01*
X198619047Y-58954819D02*
X198714285Y-59002438D01*
X198714285Y-59002438D02*
X198761904Y-59050057D01*
X198761904Y-59050057D02*
X198809523Y-59145295D01*
X198809523Y-59145295D02*
X198809523Y-59240533D01*
X198809523Y-59240533D02*
X198761904Y-59383390D01*
X198761904Y-59383390D02*
X198190476Y-59954819D01*
X198190476Y-59954819D02*
X198809523Y-59954819D01*
X186833333Y-96454819D02*
X186500000Y-95978628D01*
X186261905Y-96454819D02*
X186261905Y-95454819D01*
X186261905Y-95454819D02*
X186642857Y-95454819D01*
X186642857Y-95454819D02*
X186738095Y-95502438D01*
X186738095Y-95502438D02*
X186785714Y-95550057D01*
X186785714Y-95550057D02*
X186833333Y-95645295D01*
X186833333Y-95645295D02*
X186833333Y-95788152D01*
X186833333Y-95788152D02*
X186785714Y-95883390D01*
X186785714Y-95883390D02*
X186738095Y-95931009D01*
X186738095Y-95931009D02*
X186642857Y-95978628D01*
X186642857Y-95978628D02*
X186261905Y-95978628D01*
X187738095Y-95454819D02*
X187261905Y-95454819D01*
X187261905Y-95454819D02*
X187214286Y-95931009D01*
X187214286Y-95931009D02*
X187261905Y-95883390D01*
X187261905Y-95883390D02*
X187357143Y-95835771D01*
X187357143Y-95835771D02*
X187595238Y-95835771D01*
X187595238Y-95835771D02*
X187690476Y-95883390D01*
X187690476Y-95883390D02*
X187738095Y-95931009D01*
X187738095Y-95931009D02*
X187785714Y-96026247D01*
X187785714Y-96026247D02*
X187785714Y-96264342D01*
X187785714Y-96264342D02*
X187738095Y-96359580D01*
X187738095Y-96359580D02*
X187690476Y-96407200D01*
X187690476Y-96407200D02*
X187595238Y-96454819D01*
X187595238Y-96454819D02*
X187357143Y-96454819D01*
X187357143Y-96454819D02*
X187261905Y-96407200D01*
X187261905Y-96407200D02*
X187214286Y-96359580D01*
X133428095Y-74784819D02*
X133428095Y-75594342D01*
X133428095Y-75594342D02*
X133475714Y-75689580D01*
X133475714Y-75689580D02*
X133523333Y-75737200D01*
X133523333Y-75737200D02*
X133618571Y-75784819D01*
X133618571Y-75784819D02*
X133809047Y-75784819D01*
X133809047Y-75784819D02*
X133904285Y-75737200D01*
X133904285Y-75737200D02*
X133951904Y-75689580D01*
X133951904Y-75689580D02*
X133999523Y-75594342D01*
X133999523Y-75594342D02*
X133999523Y-74784819D01*
X134999523Y-75784819D02*
X134428095Y-75784819D01*
X134713809Y-75784819D02*
X134713809Y-74784819D01*
X134713809Y-74784819D02*
X134618571Y-74927676D01*
X134618571Y-74927676D02*
X134523333Y-75022914D01*
X134523333Y-75022914D02*
X134428095Y-75070533D01*
X114666666Y-73452319D02*
X114666666Y-74166604D01*
X114666666Y-74166604D02*
X114619047Y-74309461D01*
X114619047Y-74309461D02*
X114523809Y-74404700D01*
X114523809Y-74404700D02*
X114380952Y-74452319D01*
X114380952Y-74452319D02*
X114285714Y-74452319D01*
X115666666Y-74452319D02*
X115095238Y-74452319D01*
X115380952Y-74452319D02*
X115380952Y-73452319D01*
X115380952Y-73452319D02*
X115285714Y-73595176D01*
X115285714Y-73595176D02*
X115190476Y-73690414D01*
X115190476Y-73690414D02*
X115095238Y-73738033D01*
X149608095Y-85344819D02*
X149608095Y-86154342D01*
X149608095Y-86154342D02*
X149655714Y-86249580D01*
X149655714Y-86249580D02*
X149703333Y-86297200D01*
X149703333Y-86297200D02*
X149798571Y-86344819D01*
X149798571Y-86344819D02*
X149989047Y-86344819D01*
X149989047Y-86344819D02*
X150084285Y-86297200D01*
X150084285Y-86297200D02*
X150131904Y-86249580D01*
X150131904Y-86249580D02*
X150179523Y-86154342D01*
X150179523Y-86154342D02*
X150179523Y-85344819D01*
X150608095Y-85440057D02*
X150655714Y-85392438D01*
X150655714Y-85392438D02*
X150750952Y-85344819D01*
X150750952Y-85344819D02*
X150989047Y-85344819D01*
X150989047Y-85344819D02*
X151084285Y-85392438D01*
X151084285Y-85392438D02*
X151131904Y-85440057D01*
X151131904Y-85440057D02*
X151179523Y-85535295D01*
X151179523Y-85535295D02*
X151179523Y-85630533D01*
X151179523Y-85630533D02*
X151131904Y-85773390D01*
X151131904Y-85773390D02*
X150560476Y-86344819D01*
X150560476Y-86344819D02*
X151179523Y-86344819D01*
X156666667Y-122407200D02*
X156809524Y-122454819D01*
X156809524Y-122454819D02*
X157047619Y-122454819D01*
X157047619Y-122454819D02*
X157142857Y-122407200D01*
X157142857Y-122407200D02*
X157190476Y-122359580D01*
X157190476Y-122359580D02*
X157238095Y-122264342D01*
X157238095Y-122264342D02*
X157238095Y-122169104D01*
X157238095Y-122169104D02*
X157190476Y-122073866D01*
X157190476Y-122073866D02*
X157142857Y-122026247D01*
X157142857Y-122026247D02*
X157047619Y-121978628D01*
X157047619Y-121978628D02*
X156857143Y-121931009D01*
X156857143Y-121931009D02*
X156761905Y-121883390D01*
X156761905Y-121883390D02*
X156714286Y-121835771D01*
X156714286Y-121835771D02*
X156666667Y-121740533D01*
X156666667Y-121740533D02*
X156666667Y-121645295D01*
X156666667Y-121645295D02*
X156714286Y-121550057D01*
X156714286Y-121550057D02*
X156761905Y-121502438D01*
X156761905Y-121502438D02*
X156857143Y-121454819D01*
X156857143Y-121454819D02*
X157095238Y-121454819D01*
X157095238Y-121454819D02*
X157238095Y-121502438D01*
X157571429Y-121454819D02*
X157809524Y-122454819D01*
X157809524Y-122454819D02*
X158000000Y-121740533D01*
X158000000Y-121740533D02*
X158190476Y-122454819D01*
X158190476Y-122454819D02*
X158428572Y-121454819D01*
X159333333Y-122454819D02*
X158761905Y-122454819D01*
X159047619Y-122454819D02*
X159047619Y-121454819D01*
X159047619Y-121454819D02*
X158952381Y-121597676D01*
X158952381Y-121597676D02*
X158857143Y-121692914D01*
X158857143Y-121692914D02*
X158761905Y-121740533D01*
X186833333Y-99454819D02*
X186500000Y-98978628D01*
X186261905Y-99454819D02*
X186261905Y-98454819D01*
X186261905Y-98454819D02*
X186642857Y-98454819D01*
X186642857Y-98454819D02*
X186738095Y-98502438D01*
X186738095Y-98502438D02*
X186785714Y-98550057D01*
X186785714Y-98550057D02*
X186833333Y-98645295D01*
X186833333Y-98645295D02*
X186833333Y-98788152D01*
X186833333Y-98788152D02*
X186785714Y-98883390D01*
X186785714Y-98883390D02*
X186738095Y-98931009D01*
X186738095Y-98931009D02*
X186642857Y-98978628D01*
X186642857Y-98978628D02*
X186261905Y-98978628D01*
X187690476Y-98454819D02*
X187500000Y-98454819D01*
X187500000Y-98454819D02*
X187404762Y-98502438D01*
X187404762Y-98502438D02*
X187357143Y-98550057D01*
X187357143Y-98550057D02*
X187261905Y-98692914D01*
X187261905Y-98692914D02*
X187214286Y-98883390D01*
X187214286Y-98883390D02*
X187214286Y-99264342D01*
X187214286Y-99264342D02*
X187261905Y-99359580D01*
X187261905Y-99359580D02*
X187309524Y-99407200D01*
X187309524Y-99407200D02*
X187404762Y-99454819D01*
X187404762Y-99454819D02*
X187595238Y-99454819D01*
X187595238Y-99454819D02*
X187690476Y-99407200D01*
X187690476Y-99407200D02*
X187738095Y-99359580D01*
X187738095Y-99359580D02*
X187785714Y-99264342D01*
X187785714Y-99264342D02*
X187785714Y-99026247D01*
X187785714Y-99026247D02*
X187738095Y-98931009D01*
X187738095Y-98931009D02*
X187690476Y-98883390D01*
X187690476Y-98883390D02*
X187595238Y-98835771D01*
X187595238Y-98835771D02*
X187404762Y-98835771D01*
X187404762Y-98835771D02*
X187309524Y-98883390D01*
X187309524Y-98883390D02*
X187261905Y-98931009D01*
X187261905Y-98931009D02*
X187214286Y-99026247D01*
X186857142Y-85954819D02*
X186523809Y-85478628D01*
X186285714Y-85954819D02*
X186285714Y-84954819D01*
X186285714Y-84954819D02*
X186666666Y-84954819D01*
X186666666Y-84954819D02*
X186761904Y-85002438D01*
X186761904Y-85002438D02*
X186809523Y-85050057D01*
X186809523Y-85050057D02*
X186857142Y-85145295D01*
X186857142Y-85145295D02*
X186857142Y-85288152D01*
X186857142Y-85288152D02*
X186809523Y-85383390D01*
X186809523Y-85383390D02*
X186761904Y-85431009D01*
X186761904Y-85431009D02*
X186666666Y-85478628D01*
X186666666Y-85478628D02*
X186285714Y-85478628D01*
X187809523Y-85954819D02*
X187238095Y-85954819D01*
X187523809Y-85954819D02*
X187523809Y-84954819D01*
X187523809Y-84954819D02*
X187428571Y-85097676D01*
X187428571Y-85097676D02*
X187333333Y-85192914D01*
X187333333Y-85192914D02*
X187238095Y-85240533D01*
X188761904Y-85954819D02*
X188190476Y-85954819D01*
X188476190Y-85954819D02*
X188476190Y-84954819D01*
X188476190Y-84954819D02*
X188380952Y-85097676D01*
X188380952Y-85097676D02*
X188285714Y-85192914D01*
X188285714Y-85192914D02*
X188190476Y-85240533D01*
X186857142Y-105954819D02*
X186523809Y-105478628D01*
X186285714Y-105954819D02*
X186285714Y-104954819D01*
X186285714Y-104954819D02*
X186666666Y-104954819D01*
X186666666Y-104954819D02*
X186761904Y-105002438D01*
X186761904Y-105002438D02*
X186809523Y-105050057D01*
X186809523Y-105050057D02*
X186857142Y-105145295D01*
X186857142Y-105145295D02*
X186857142Y-105288152D01*
X186857142Y-105288152D02*
X186809523Y-105383390D01*
X186809523Y-105383390D02*
X186761904Y-105431009D01*
X186761904Y-105431009D02*
X186666666Y-105478628D01*
X186666666Y-105478628D02*
X186285714Y-105478628D01*
X187809523Y-105954819D02*
X187238095Y-105954819D01*
X187523809Y-105954819D02*
X187523809Y-104954819D01*
X187523809Y-104954819D02*
X187428571Y-105097676D01*
X187428571Y-105097676D02*
X187333333Y-105192914D01*
X187333333Y-105192914D02*
X187238095Y-105240533D01*
X188666666Y-105288152D02*
X188666666Y-105954819D01*
X188428571Y-104907200D02*
X188190476Y-105621485D01*
X188190476Y-105621485D02*
X188809523Y-105621485D01*
X109124819Y-104192857D02*
X108648628Y-104526190D01*
X109124819Y-104764285D02*
X108124819Y-104764285D01*
X108124819Y-104764285D02*
X108124819Y-104383333D01*
X108124819Y-104383333D02*
X108172438Y-104288095D01*
X108172438Y-104288095D02*
X108220057Y-104240476D01*
X108220057Y-104240476D02*
X108315295Y-104192857D01*
X108315295Y-104192857D02*
X108458152Y-104192857D01*
X108458152Y-104192857D02*
X108553390Y-104240476D01*
X108553390Y-104240476D02*
X108601009Y-104288095D01*
X108601009Y-104288095D02*
X108648628Y-104383333D01*
X108648628Y-104383333D02*
X108648628Y-104764285D01*
X109124819Y-103240476D02*
X109124819Y-103811904D01*
X109124819Y-103526190D02*
X108124819Y-103526190D01*
X108124819Y-103526190D02*
X108267676Y-103621428D01*
X108267676Y-103621428D02*
X108362914Y-103716666D01*
X108362914Y-103716666D02*
X108410533Y-103811904D01*
X109124819Y-102764285D02*
X109124819Y-102573809D01*
X109124819Y-102573809D02*
X109077200Y-102478571D01*
X109077200Y-102478571D02*
X109029580Y-102430952D01*
X109029580Y-102430952D02*
X108886723Y-102335714D01*
X108886723Y-102335714D02*
X108696247Y-102288095D01*
X108696247Y-102288095D02*
X108315295Y-102288095D01*
X108315295Y-102288095D02*
X108220057Y-102335714D01*
X108220057Y-102335714D02*
X108172438Y-102383333D01*
X108172438Y-102383333D02*
X108124819Y-102478571D01*
X108124819Y-102478571D02*
X108124819Y-102669047D01*
X108124819Y-102669047D02*
X108172438Y-102764285D01*
X108172438Y-102764285D02*
X108220057Y-102811904D01*
X108220057Y-102811904D02*
X108315295Y-102859523D01*
X108315295Y-102859523D02*
X108553390Y-102859523D01*
X108553390Y-102859523D02*
X108648628Y-102811904D01*
X108648628Y-102811904D02*
X108696247Y-102764285D01*
X108696247Y-102764285D02*
X108743866Y-102669047D01*
X108743866Y-102669047D02*
X108743866Y-102478571D01*
X108743866Y-102478571D02*
X108696247Y-102383333D01*
X108696247Y-102383333D02*
X108648628Y-102335714D01*
X108648628Y-102335714D02*
X108553390Y-102288095D01*
X158584819Y-63846666D02*
X158108628Y-64179999D01*
X158584819Y-64418094D02*
X157584819Y-64418094D01*
X157584819Y-64418094D02*
X157584819Y-64037142D01*
X157584819Y-64037142D02*
X157632438Y-63941904D01*
X157632438Y-63941904D02*
X157680057Y-63894285D01*
X157680057Y-63894285D02*
X157775295Y-63846666D01*
X157775295Y-63846666D02*
X157918152Y-63846666D01*
X157918152Y-63846666D02*
X158013390Y-63894285D01*
X158013390Y-63894285D02*
X158061009Y-63941904D01*
X158061009Y-63941904D02*
X158108628Y-64037142D01*
X158108628Y-64037142D02*
X158108628Y-64418094D01*
X157680057Y-63465713D02*
X157632438Y-63418094D01*
X157632438Y-63418094D02*
X157584819Y-63322856D01*
X157584819Y-63322856D02*
X157584819Y-63084761D01*
X157584819Y-63084761D02*
X157632438Y-62989523D01*
X157632438Y-62989523D02*
X157680057Y-62941904D01*
X157680057Y-62941904D02*
X157775295Y-62894285D01*
X157775295Y-62894285D02*
X157870533Y-62894285D01*
X157870533Y-62894285D02*
X158013390Y-62941904D01*
X158013390Y-62941904D02*
X158584819Y-63513332D01*
X158584819Y-63513332D02*
X158584819Y-62894285D01*
X128083333Y-62359580D02*
X128035714Y-62407200D01*
X128035714Y-62407200D02*
X127892857Y-62454819D01*
X127892857Y-62454819D02*
X127797619Y-62454819D01*
X127797619Y-62454819D02*
X127654762Y-62407200D01*
X127654762Y-62407200D02*
X127559524Y-62311961D01*
X127559524Y-62311961D02*
X127511905Y-62216723D01*
X127511905Y-62216723D02*
X127464286Y-62026247D01*
X127464286Y-62026247D02*
X127464286Y-61883390D01*
X127464286Y-61883390D02*
X127511905Y-61692914D01*
X127511905Y-61692914D02*
X127559524Y-61597676D01*
X127559524Y-61597676D02*
X127654762Y-61502438D01*
X127654762Y-61502438D02*
X127797619Y-61454819D01*
X127797619Y-61454819D02*
X127892857Y-61454819D01*
X127892857Y-61454819D02*
X128035714Y-61502438D01*
X128035714Y-61502438D02*
X128083333Y-61550057D01*
X129035714Y-62454819D02*
X128464286Y-62454819D01*
X128750000Y-62454819D02*
X128750000Y-61454819D01*
X128750000Y-61454819D02*
X128654762Y-61597676D01*
X128654762Y-61597676D02*
X128559524Y-61692914D01*
X128559524Y-61692914D02*
X128464286Y-61740533D01*
X120238095Y-93004819D02*
X120238095Y-92004819D01*
X120238095Y-92481009D02*
X120809523Y-92481009D01*
X120809523Y-93004819D02*
X120809523Y-92004819D01*
X121714285Y-92338152D02*
X121714285Y-93004819D01*
X121476190Y-91957200D02*
X121238095Y-92671485D01*
X121238095Y-92671485D02*
X121857142Y-92671485D01*
X185857142Y-110454819D02*
X185523809Y-109978628D01*
X185285714Y-110454819D02*
X185285714Y-109454819D01*
X185285714Y-109454819D02*
X185666666Y-109454819D01*
X185666666Y-109454819D02*
X185761904Y-109502438D01*
X185761904Y-109502438D02*
X185809523Y-109550057D01*
X185809523Y-109550057D02*
X185857142Y-109645295D01*
X185857142Y-109645295D02*
X185857142Y-109788152D01*
X185857142Y-109788152D02*
X185809523Y-109883390D01*
X185809523Y-109883390D02*
X185761904Y-109931009D01*
X185761904Y-109931009D02*
X185666666Y-109978628D01*
X185666666Y-109978628D02*
X185285714Y-109978628D01*
X186809523Y-110454819D02*
X186238095Y-110454819D01*
X186523809Y-110454819D02*
X186523809Y-109454819D01*
X186523809Y-109454819D02*
X186428571Y-109597676D01*
X186428571Y-109597676D02*
X186333333Y-109692914D01*
X186333333Y-109692914D02*
X186238095Y-109740533D01*
X187666666Y-109454819D02*
X187476190Y-109454819D01*
X187476190Y-109454819D02*
X187380952Y-109502438D01*
X187380952Y-109502438D02*
X187333333Y-109550057D01*
X187333333Y-109550057D02*
X187238095Y-109692914D01*
X187238095Y-109692914D02*
X187190476Y-109883390D01*
X187190476Y-109883390D02*
X187190476Y-110264342D01*
X187190476Y-110264342D02*
X187238095Y-110359580D01*
X187238095Y-110359580D02*
X187285714Y-110407200D01*
X187285714Y-110407200D02*
X187380952Y-110454819D01*
X187380952Y-110454819D02*
X187571428Y-110454819D01*
X187571428Y-110454819D02*
X187666666Y-110407200D01*
X187666666Y-110407200D02*
X187714285Y-110359580D01*
X187714285Y-110359580D02*
X187761904Y-110264342D01*
X187761904Y-110264342D02*
X187761904Y-110026247D01*
X187761904Y-110026247D02*
X187714285Y-109931009D01*
X187714285Y-109931009D02*
X187666666Y-109883390D01*
X187666666Y-109883390D02*
X187571428Y-109835771D01*
X187571428Y-109835771D02*
X187380952Y-109835771D01*
X187380952Y-109835771D02*
X187285714Y-109883390D01*
X187285714Y-109883390D02*
X187238095Y-109931009D01*
X187238095Y-109931009D02*
X187190476Y-110026247D01*
X161548095Y-85344819D02*
X161548095Y-86154342D01*
X161548095Y-86154342D02*
X161595714Y-86249580D01*
X161595714Y-86249580D02*
X161643333Y-86297200D01*
X161643333Y-86297200D02*
X161738571Y-86344819D01*
X161738571Y-86344819D02*
X161929047Y-86344819D01*
X161929047Y-86344819D02*
X162024285Y-86297200D01*
X162024285Y-86297200D02*
X162071904Y-86249580D01*
X162071904Y-86249580D02*
X162119523Y-86154342D01*
X162119523Y-86154342D02*
X162119523Y-85344819D01*
X162500476Y-85344819D02*
X163119523Y-85344819D01*
X163119523Y-85344819D02*
X162786190Y-85725771D01*
X162786190Y-85725771D02*
X162929047Y-85725771D01*
X162929047Y-85725771D02*
X163024285Y-85773390D01*
X163024285Y-85773390D02*
X163071904Y-85821009D01*
X163071904Y-85821009D02*
X163119523Y-85916247D01*
X163119523Y-85916247D02*
X163119523Y-86154342D01*
X163119523Y-86154342D02*
X163071904Y-86249580D01*
X163071904Y-86249580D02*
X163024285Y-86297200D01*
X163024285Y-86297200D02*
X162929047Y-86344819D01*
X162929047Y-86344819D02*
X162643333Y-86344819D01*
X162643333Y-86344819D02*
X162548095Y-86297200D01*
X162548095Y-86297200D02*
X162500476Y-86249580D01*
X154509580Y-117729166D02*
X154557200Y-117776785D01*
X154557200Y-117776785D02*
X154604819Y-117919642D01*
X154604819Y-117919642D02*
X154604819Y-118014880D01*
X154604819Y-118014880D02*
X154557200Y-118157737D01*
X154557200Y-118157737D02*
X154461961Y-118252975D01*
X154461961Y-118252975D02*
X154366723Y-118300594D01*
X154366723Y-118300594D02*
X154176247Y-118348213D01*
X154176247Y-118348213D02*
X154033390Y-118348213D01*
X154033390Y-118348213D02*
X153842914Y-118300594D01*
X153842914Y-118300594D02*
X153747676Y-118252975D01*
X153747676Y-118252975D02*
X153652438Y-118157737D01*
X153652438Y-118157737D02*
X153604819Y-118014880D01*
X153604819Y-118014880D02*
X153604819Y-117919642D01*
X153604819Y-117919642D02*
X153652438Y-117776785D01*
X153652438Y-117776785D02*
X153700057Y-117729166D01*
X153604819Y-117395832D02*
X153604819Y-116776785D01*
X153604819Y-116776785D02*
X153985771Y-117110118D01*
X153985771Y-117110118D02*
X153985771Y-116967261D01*
X153985771Y-116967261D02*
X154033390Y-116872023D01*
X154033390Y-116872023D02*
X154081009Y-116824404D01*
X154081009Y-116824404D02*
X154176247Y-116776785D01*
X154176247Y-116776785D02*
X154414342Y-116776785D01*
X154414342Y-116776785D02*
X154509580Y-116824404D01*
X154509580Y-116824404D02*
X154557200Y-116872023D01*
X154557200Y-116872023D02*
X154604819Y-116967261D01*
X154604819Y-116967261D02*
X154604819Y-117252975D01*
X154604819Y-117252975D02*
X154557200Y-117348213D01*
X154557200Y-117348213D02*
X154509580Y-117395832D01*
X166624819Y-117716666D02*
X166148628Y-118049999D01*
X166624819Y-118288094D02*
X165624819Y-118288094D01*
X165624819Y-118288094D02*
X165624819Y-117907142D01*
X165624819Y-117907142D02*
X165672438Y-117811904D01*
X165672438Y-117811904D02*
X165720057Y-117764285D01*
X165720057Y-117764285D02*
X165815295Y-117716666D01*
X165815295Y-117716666D02*
X165958152Y-117716666D01*
X165958152Y-117716666D02*
X166053390Y-117764285D01*
X166053390Y-117764285D02*
X166101009Y-117811904D01*
X166101009Y-117811904D02*
X166148628Y-117907142D01*
X166148628Y-117907142D02*
X166148628Y-118288094D01*
X166624819Y-117240475D02*
X166624819Y-117049999D01*
X166624819Y-117049999D02*
X166577200Y-116954761D01*
X166577200Y-116954761D02*
X166529580Y-116907142D01*
X166529580Y-116907142D02*
X166386723Y-116811904D01*
X166386723Y-116811904D02*
X166196247Y-116764285D01*
X166196247Y-116764285D02*
X165815295Y-116764285D01*
X165815295Y-116764285D02*
X165720057Y-116811904D01*
X165720057Y-116811904D02*
X165672438Y-116859523D01*
X165672438Y-116859523D02*
X165624819Y-116954761D01*
X165624819Y-116954761D02*
X165624819Y-117145237D01*
X165624819Y-117145237D02*
X165672438Y-117240475D01*
X165672438Y-117240475D02*
X165720057Y-117288094D01*
X165720057Y-117288094D02*
X165815295Y-117335713D01*
X165815295Y-117335713D02*
X166053390Y-117335713D01*
X166053390Y-117335713D02*
X166148628Y-117288094D01*
X166148628Y-117288094D02*
X166196247Y-117240475D01*
X166196247Y-117240475D02*
X166243866Y-117145237D01*
X166243866Y-117145237D02*
X166243866Y-116954761D01*
X166243866Y-116954761D02*
X166196247Y-116859523D01*
X166196247Y-116859523D02*
X166148628Y-116811904D01*
X166148628Y-116811904D02*
X166053390Y-116764285D01*
X141397200Y-105923332D02*
X141444819Y-105780475D01*
X141444819Y-105780475D02*
X141444819Y-105542380D01*
X141444819Y-105542380D02*
X141397200Y-105447142D01*
X141397200Y-105447142D02*
X141349580Y-105399523D01*
X141349580Y-105399523D02*
X141254342Y-105351904D01*
X141254342Y-105351904D02*
X141159104Y-105351904D01*
X141159104Y-105351904D02*
X141063866Y-105399523D01*
X141063866Y-105399523D02*
X141016247Y-105447142D01*
X141016247Y-105447142D02*
X140968628Y-105542380D01*
X140968628Y-105542380D02*
X140921009Y-105732856D01*
X140921009Y-105732856D02*
X140873390Y-105828094D01*
X140873390Y-105828094D02*
X140825771Y-105875713D01*
X140825771Y-105875713D02*
X140730533Y-105923332D01*
X140730533Y-105923332D02*
X140635295Y-105923332D01*
X140635295Y-105923332D02*
X140540057Y-105875713D01*
X140540057Y-105875713D02*
X140492438Y-105828094D01*
X140492438Y-105828094D02*
X140444819Y-105732856D01*
X140444819Y-105732856D02*
X140444819Y-105494761D01*
X140444819Y-105494761D02*
X140492438Y-105351904D01*
X140444819Y-105018570D02*
X141444819Y-104780475D01*
X141444819Y-104780475D02*
X140730533Y-104589999D01*
X140730533Y-104589999D02*
X141444819Y-104399523D01*
X141444819Y-104399523D02*
X140444819Y-104161428D01*
X140540057Y-103828094D02*
X140492438Y-103780475D01*
X140492438Y-103780475D02*
X140444819Y-103685237D01*
X140444819Y-103685237D02*
X140444819Y-103447142D01*
X140444819Y-103447142D02*
X140492438Y-103351904D01*
X140492438Y-103351904D02*
X140540057Y-103304285D01*
X140540057Y-103304285D02*
X140635295Y-103256666D01*
X140635295Y-103256666D02*
X140730533Y-103256666D01*
X140730533Y-103256666D02*
X140873390Y-103304285D01*
X140873390Y-103304285D02*
X141444819Y-103875713D01*
X141444819Y-103875713D02*
X141444819Y-103256666D01*
X172761905Y-71704819D02*
X172761905Y-70704819D01*
X172761905Y-70704819D02*
X173000000Y-70704819D01*
X173000000Y-70704819D02*
X173142857Y-70752438D01*
X173142857Y-70752438D02*
X173238095Y-70847676D01*
X173238095Y-70847676D02*
X173285714Y-70942914D01*
X173285714Y-70942914D02*
X173333333Y-71133390D01*
X173333333Y-71133390D02*
X173333333Y-71276247D01*
X173333333Y-71276247D02*
X173285714Y-71466723D01*
X173285714Y-71466723D02*
X173238095Y-71561961D01*
X173238095Y-71561961D02*
X173142857Y-71657200D01*
X173142857Y-71657200D02*
X173000000Y-71704819D01*
X173000000Y-71704819D02*
X172761905Y-71704819D01*
X174238095Y-70704819D02*
X173761905Y-70704819D01*
X173761905Y-70704819D02*
X173714286Y-71181009D01*
X173714286Y-71181009D02*
X173761905Y-71133390D01*
X173761905Y-71133390D02*
X173857143Y-71085771D01*
X173857143Y-71085771D02*
X174095238Y-71085771D01*
X174095238Y-71085771D02*
X174190476Y-71133390D01*
X174190476Y-71133390D02*
X174238095Y-71181009D01*
X174238095Y-71181009D02*
X174285714Y-71276247D01*
X174285714Y-71276247D02*
X174285714Y-71514342D01*
X174285714Y-71514342D02*
X174238095Y-71609580D01*
X174238095Y-71609580D02*
X174190476Y-71657200D01*
X174190476Y-71657200D02*
X174095238Y-71704819D01*
X174095238Y-71704819D02*
X173857143Y-71704819D01*
X173857143Y-71704819D02*
X173761905Y-71657200D01*
X173761905Y-71657200D02*
X173714286Y-71609580D01*
X132411905Y-79484819D02*
X132411905Y-78484819D01*
X132411905Y-78484819D02*
X132650000Y-78484819D01*
X132650000Y-78484819D02*
X132792857Y-78532438D01*
X132792857Y-78532438D02*
X132888095Y-78627676D01*
X132888095Y-78627676D02*
X132935714Y-78722914D01*
X132935714Y-78722914D02*
X132983333Y-78913390D01*
X132983333Y-78913390D02*
X132983333Y-79056247D01*
X132983333Y-79056247D02*
X132935714Y-79246723D01*
X132935714Y-79246723D02*
X132888095Y-79341961D01*
X132888095Y-79341961D02*
X132792857Y-79437200D01*
X132792857Y-79437200D02*
X132650000Y-79484819D01*
X132650000Y-79484819D02*
X132411905Y-79484819D01*
X133840476Y-78818152D02*
X133840476Y-79484819D01*
X133602381Y-78437200D02*
X133364286Y-79151485D01*
X133364286Y-79151485D02*
X133983333Y-79151485D01*
X126538095Y-79854819D02*
X126538095Y-78854819D01*
X127109523Y-79854819D02*
X126680952Y-79283390D01*
X127109523Y-78854819D02*
X126538095Y-79426247D01*
X145288446Y-66609580D02*
X145240827Y-66657200D01*
X145240827Y-66657200D02*
X145097970Y-66704819D01*
X145097970Y-66704819D02*
X145002732Y-66704819D01*
X145002732Y-66704819D02*
X144859875Y-66657200D01*
X144859875Y-66657200D02*
X144764637Y-66561961D01*
X144764637Y-66561961D02*
X144717018Y-66466723D01*
X144717018Y-66466723D02*
X144669399Y-66276247D01*
X144669399Y-66276247D02*
X144669399Y-66133390D01*
X144669399Y-66133390D02*
X144717018Y-65942914D01*
X144717018Y-65942914D02*
X144764637Y-65847676D01*
X144764637Y-65847676D02*
X144859875Y-65752438D01*
X144859875Y-65752438D02*
X145002732Y-65704819D01*
X145002732Y-65704819D02*
X145097970Y-65704819D01*
X145097970Y-65704819D02*
X145240827Y-65752438D01*
X145240827Y-65752438D02*
X145288446Y-65800057D01*
X145669399Y-65800057D02*
X145717018Y-65752438D01*
X145717018Y-65752438D02*
X145812256Y-65704819D01*
X145812256Y-65704819D02*
X146050351Y-65704819D01*
X146050351Y-65704819D02*
X146145589Y-65752438D01*
X146145589Y-65752438D02*
X146193208Y-65800057D01*
X146193208Y-65800057D02*
X146240827Y-65895295D01*
X146240827Y-65895295D02*
X146240827Y-65990533D01*
X146240827Y-65990533D02*
X146193208Y-66133390D01*
X146193208Y-66133390D02*
X145621780Y-66704819D01*
X145621780Y-66704819D02*
X146240827Y-66704819D01*
X197238095Y-123954819D02*
X197238095Y-122954819D01*
X197238095Y-123431009D02*
X197809523Y-123431009D01*
X197809523Y-123954819D02*
X197809523Y-122954819D01*
X198190476Y-122954819D02*
X198809523Y-122954819D01*
X198809523Y-122954819D02*
X198476190Y-123335771D01*
X198476190Y-123335771D02*
X198619047Y-123335771D01*
X198619047Y-123335771D02*
X198714285Y-123383390D01*
X198714285Y-123383390D02*
X198761904Y-123431009D01*
X198761904Y-123431009D02*
X198809523Y-123526247D01*
X198809523Y-123526247D02*
X198809523Y-123764342D01*
X198809523Y-123764342D02*
X198761904Y-123859580D01*
X198761904Y-123859580D02*
X198714285Y-123907200D01*
X198714285Y-123907200D02*
X198619047Y-123954819D01*
X198619047Y-123954819D02*
X198333333Y-123954819D01*
X198333333Y-123954819D02*
X198238095Y-123907200D01*
X198238095Y-123907200D02*
X198190476Y-123859580D01*
X153084819Y-63766666D02*
X152608628Y-64099999D01*
X153084819Y-64338094D02*
X152084819Y-64338094D01*
X152084819Y-64338094D02*
X152084819Y-63957142D01*
X152084819Y-63957142D02*
X152132438Y-63861904D01*
X152132438Y-63861904D02*
X152180057Y-63814285D01*
X152180057Y-63814285D02*
X152275295Y-63766666D01*
X152275295Y-63766666D02*
X152418152Y-63766666D01*
X152418152Y-63766666D02*
X152513390Y-63814285D01*
X152513390Y-63814285D02*
X152561009Y-63861904D01*
X152561009Y-63861904D02*
X152608628Y-63957142D01*
X152608628Y-63957142D02*
X152608628Y-64338094D01*
X153084819Y-62814285D02*
X153084819Y-63385713D01*
X153084819Y-63099999D02*
X152084819Y-63099999D01*
X152084819Y-63099999D02*
X152227676Y-63195237D01*
X152227676Y-63195237D02*
X152322914Y-63290475D01*
X152322914Y-63290475D02*
X152370533Y-63385713D01*
X186833333Y-102454819D02*
X186500000Y-101978628D01*
X186261905Y-102454819D02*
X186261905Y-101454819D01*
X186261905Y-101454819D02*
X186642857Y-101454819D01*
X186642857Y-101454819D02*
X186738095Y-101502438D01*
X186738095Y-101502438D02*
X186785714Y-101550057D01*
X186785714Y-101550057D02*
X186833333Y-101645295D01*
X186833333Y-101645295D02*
X186833333Y-101788152D01*
X186833333Y-101788152D02*
X186785714Y-101883390D01*
X186785714Y-101883390D02*
X186738095Y-101931009D01*
X186738095Y-101931009D02*
X186642857Y-101978628D01*
X186642857Y-101978628D02*
X186261905Y-101978628D01*
X187404762Y-101883390D02*
X187309524Y-101835771D01*
X187309524Y-101835771D02*
X187261905Y-101788152D01*
X187261905Y-101788152D02*
X187214286Y-101692914D01*
X187214286Y-101692914D02*
X187214286Y-101645295D01*
X187214286Y-101645295D02*
X187261905Y-101550057D01*
X187261905Y-101550057D02*
X187309524Y-101502438D01*
X187309524Y-101502438D02*
X187404762Y-101454819D01*
X187404762Y-101454819D02*
X187595238Y-101454819D01*
X187595238Y-101454819D02*
X187690476Y-101502438D01*
X187690476Y-101502438D02*
X187738095Y-101550057D01*
X187738095Y-101550057D02*
X187785714Y-101645295D01*
X187785714Y-101645295D02*
X187785714Y-101692914D01*
X187785714Y-101692914D02*
X187738095Y-101788152D01*
X187738095Y-101788152D02*
X187690476Y-101835771D01*
X187690476Y-101835771D02*
X187595238Y-101883390D01*
X187595238Y-101883390D02*
X187404762Y-101883390D01*
X187404762Y-101883390D02*
X187309524Y-101931009D01*
X187309524Y-101931009D02*
X187261905Y-101978628D01*
X187261905Y-101978628D02*
X187214286Y-102073866D01*
X187214286Y-102073866D02*
X187214286Y-102264342D01*
X187214286Y-102264342D02*
X187261905Y-102359580D01*
X187261905Y-102359580D02*
X187309524Y-102407200D01*
X187309524Y-102407200D02*
X187404762Y-102454819D01*
X187404762Y-102454819D02*
X187595238Y-102454819D01*
X187595238Y-102454819D02*
X187690476Y-102407200D01*
X187690476Y-102407200D02*
X187738095Y-102359580D01*
X187738095Y-102359580D02*
X187785714Y-102264342D01*
X187785714Y-102264342D02*
X187785714Y-102073866D01*
X187785714Y-102073866D02*
X187738095Y-101978628D01*
X187738095Y-101978628D02*
X187690476Y-101931009D01*
X187690476Y-101931009D02*
X187595238Y-101883390D01*
X178624819Y-118192857D02*
X178148628Y-118526190D01*
X178624819Y-118764285D02*
X177624819Y-118764285D01*
X177624819Y-118764285D02*
X177624819Y-118383333D01*
X177624819Y-118383333D02*
X177672438Y-118288095D01*
X177672438Y-118288095D02*
X177720057Y-118240476D01*
X177720057Y-118240476D02*
X177815295Y-118192857D01*
X177815295Y-118192857D02*
X177958152Y-118192857D01*
X177958152Y-118192857D02*
X178053390Y-118240476D01*
X178053390Y-118240476D02*
X178101009Y-118288095D01*
X178101009Y-118288095D02*
X178148628Y-118383333D01*
X178148628Y-118383333D02*
X178148628Y-118764285D01*
X178624819Y-117240476D02*
X178624819Y-117811904D01*
X178624819Y-117526190D02*
X177624819Y-117526190D01*
X177624819Y-117526190D02*
X177767676Y-117621428D01*
X177767676Y-117621428D02*
X177862914Y-117716666D01*
X177862914Y-117716666D02*
X177910533Y-117811904D01*
X177624819Y-116335714D02*
X177624819Y-116811904D01*
X177624819Y-116811904D02*
X178101009Y-116859523D01*
X178101009Y-116859523D02*
X178053390Y-116811904D01*
X178053390Y-116811904D02*
X178005771Y-116716666D01*
X178005771Y-116716666D02*
X178005771Y-116478571D01*
X178005771Y-116478571D02*
X178053390Y-116383333D01*
X178053390Y-116383333D02*
X178101009Y-116335714D01*
X178101009Y-116335714D02*
X178196247Y-116288095D01*
X178196247Y-116288095D02*
X178434342Y-116288095D01*
X178434342Y-116288095D02*
X178529580Y-116335714D01*
X178529580Y-116335714D02*
X178577200Y-116383333D01*
X178577200Y-116383333D02*
X178624819Y-116478571D01*
X178624819Y-116478571D02*
X178624819Y-116716666D01*
X178624819Y-116716666D02*
X178577200Y-116811904D01*
X178577200Y-116811904D02*
X178529580Y-116859523D01*
X171124819Y-118192857D02*
X170648628Y-118526190D01*
X171124819Y-118764285D02*
X170124819Y-118764285D01*
X170124819Y-118764285D02*
X170124819Y-118383333D01*
X170124819Y-118383333D02*
X170172438Y-118288095D01*
X170172438Y-118288095D02*
X170220057Y-118240476D01*
X170220057Y-118240476D02*
X170315295Y-118192857D01*
X170315295Y-118192857D02*
X170458152Y-118192857D01*
X170458152Y-118192857D02*
X170553390Y-118240476D01*
X170553390Y-118240476D02*
X170601009Y-118288095D01*
X170601009Y-118288095D02*
X170648628Y-118383333D01*
X170648628Y-118383333D02*
X170648628Y-118764285D01*
X171124819Y-117240476D02*
X171124819Y-117811904D01*
X171124819Y-117526190D02*
X170124819Y-117526190D01*
X170124819Y-117526190D02*
X170267676Y-117621428D01*
X170267676Y-117621428D02*
X170362914Y-117716666D01*
X170362914Y-117716666D02*
X170410533Y-117811904D01*
X170124819Y-116621428D02*
X170124819Y-116526190D01*
X170124819Y-116526190D02*
X170172438Y-116430952D01*
X170172438Y-116430952D02*
X170220057Y-116383333D01*
X170220057Y-116383333D02*
X170315295Y-116335714D01*
X170315295Y-116335714D02*
X170505771Y-116288095D01*
X170505771Y-116288095D02*
X170743866Y-116288095D01*
X170743866Y-116288095D02*
X170934342Y-116335714D01*
X170934342Y-116335714D02*
X171029580Y-116383333D01*
X171029580Y-116383333D02*
X171077200Y-116430952D01*
X171077200Y-116430952D02*
X171124819Y-116526190D01*
X171124819Y-116526190D02*
X171124819Y-116621428D01*
X171124819Y-116621428D02*
X171077200Y-116716666D01*
X171077200Y-116716666D02*
X171029580Y-116764285D01*
X171029580Y-116764285D02*
X170934342Y-116811904D01*
X170934342Y-116811904D02*
X170743866Y-116859523D01*
X170743866Y-116859523D02*
X170505771Y-116859523D01*
X170505771Y-116859523D02*
X170315295Y-116811904D01*
X170315295Y-116811904D02*
X170220057Y-116764285D01*
X170220057Y-116764285D02*
X170172438Y-116716666D01*
X170172438Y-116716666D02*
X170124819Y-116621428D01*
X140104819Y-75666666D02*
X140104819Y-76142856D01*
X140104819Y-76142856D02*
X139104819Y-76142856D01*
X140104819Y-74809523D02*
X140104819Y-75380951D01*
X140104819Y-75095237D02*
X139104819Y-75095237D01*
X139104819Y-75095237D02*
X139247676Y-75190475D01*
X139247676Y-75190475D02*
X139342914Y-75285713D01*
X139342914Y-75285713D02*
X139390533Y-75380951D01*
X166084819Y-64086666D02*
X165608628Y-64419999D01*
X166084819Y-64658094D02*
X165084819Y-64658094D01*
X165084819Y-64658094D02*
X165084819Y-64277142D01*
X165084819Y-64277142D02*
X165132438Y-64181904D01*
X165132438Y-64181904D02*
X165180057Y-64134285D01*
X165180057Y-64134285D02*
X165275295Y-64086666D01*
X165275295Y-64086666D02*
X165418152Y-64086666D01*
X165418152Y-64086666D02*
X165513390Y-64134285D01*
X165513390Y-64134285D02*
X165561009Y-64181904D01*
X165561009Y-64181904D02*
X165608628Y-64277142D01*
X165608628Y-64277142D02*
X165608628Y-64658094D01*
X165084819Y-63753332D02*
X165084819Y-63134285D01*
X165084819Y-63134285D02*
X165465771Y-63467618D01*
X165465771Y-63467618D02*
X165465771Y-63324761D01*
X165465771Y-63324761D02*
X165513390Y-63229523D01*
X165513390Y-63229523D02*
X165561009Y-63181904D01*
X165561009Y-63181904D02*
X165656247Y-63134285D01*
X165656247Y-63134285D02*
X165894342Y-63134285D01*
X165894342Y-63134285D02*
X165989580Y-63181904D01*
X165989580Y-63181904D02*
X166037200Y-63229523D01*
X166037200Y-63229523D02*
X166084819Y-63324761D01*
X166084819Y-63324761D02*
X166084819Y-63610475D01*
X166084819Y-63610475D02*
X166037200Y-63705713D01*
X166037200Y-63705713D02*
X165989580Y-63753332D01*
X109124819Y-98192857D02*
X108648628Y-98526190D01*
X109124819Y-98764285D02*
X108124819Y-98764285D01*
X108124819Y-98764285D02*
X108124819Y-98383333D01*
X108124819Y-98383333D02*
X108172438Y-98288095D01*
X108172438Y-98288095D02*
X108220057Y-98240476D01*
X108220057Y-98240476D02*
X108315295Y-98192857D01*
X108315295Y-98192857D02*
X108458152Y-98192857D01*
X108458152Y-98192857D02*
X108553390Y-98240476D01*
X108553390Y-98240476D02*
X108601009Y-98288095D01*
X108601009Y-98288095D02*
X108648628Y-98383333D01*
X108648628Y-98383333D02*
X108648628Y-98764285D01*
X108220057Y-97811904D02*
X108172438Y-97764285D01*
X108172438Y-97764285D02*
X108124819Y-97669047D01*
X108124819Y-97669047D02*
X108124819Y-97430952D01*
X108124819Y-97430952D02*
X108172438Y-97335714D01*
X108172438Y-97335714D02*
X108220057Y-97288095D01*
X108220057Y-97288095D02*
X108315295Y-97240476D01*
X108315295Y-97240476D02*
X108410533Y-97240476D01*
X108410533Y-97240476D02*
X108553390Y-97288095D01*
X108553390Y-97288095D02*
X109124819Y-97859523D01*
X109124819Y-97859523D02*
X109124819Y-97240476D01*
X108124819Y-96621428D02*
X108124819Y-96526190D01*
X108124819Y-96526190D02*
X108172438Y-96430952D01*
X108172438Y-96430952D02*
X108220057Y-96383333D01*
X108220057Y-96383333D02*
X108315295Y-96335714D01*
X108315295Y-96335714D02*
X108505771Y-96288095D01*
X108505771Y-96288095D02*
X108743866Y-96288095D01*
X108743866Y-96288095D02*
X108934342Y-96335714D01*
X108934342Y-96335714D02*
X109029580Y-96383333D01*
X109029580Y-96383333D02*
X109077200Y-96430952D01*
X109077200Y-96430952D02*
X109124819Y-96526190D01*
X109124819Y-96526190D02*
X109124819Y-96621428D01*
X109124819Y-96621428D02*
X109077200Y-96716666D01*
X109077200Y-96716666D02*
X109029580Y-96764285D01*
X109029580Y-96764285D02*
X108934342Y-96811904D01*
X108934342Y-96811904D02*
X108743866Y-96859523D01*
X108743866Y-96859523D02*
X108505771Y-96859523D01*
X108505771Y-96859523D02*
X108315295Y-96811904D01*
X108315295Y-96811904D02*
X108220057Y-96764285D01*
X108220057Y-96764285D02*
X108172438Y-96716666D01*
X108172438Y-96716666D02*
X108124819Y-96621428D01*
X165261905Y-71704819D02*
X165261905Y-70704819D01*
X165261905Y-70704819D02*
X165500000Y-70704819D01*
X165500000Y-70704819D02*
X165642857Y-70752438D01*
X165642857Y-70752438D02*
X165738095Y-70847676D01*
X165738095Y-70847676D02*
X165785714Y-70942914D01*
X165785714Y-70942914D02*
X165833333Y-71133390D01*
X165833333Y-71133390D02*
X165833333Y-71276247D01*
X165833333Y-71276247D02*
X165785714Y-71466723D01*
X165785714Y-71466723D02*
X165738095Y-71561961D01*
X165738095Y-71561961D02*
X165642857Y-71657200D01*
X165642857Y-71657200D02*
X165500000Y-71704819D01*
X165500000Y-71704819D02*
X165261905Y-71704819D01*
X166166667Y-70704819D02*
X166785714Y-70704819D01*
X166785714Y-70704819D02*
X166452381Y-71085771D01*
X166452381Y-71085771D02*
X166595238Y-71085771D01*
X166595238Y-71085771D02*
X166690476Y-71133390D01*
X166690476Y-71133390D02*
X166738095Y-71181009D01*
X166738095Y-71181009D02*
X166785714Y-71276247D01*
X166785714Y-71276247D02*
X166785714Y-71514342D01*
X166785714Y-71514342D02*
X166738095Y-71609580D01*
X166738095Y-71609580D02*
X166690476Y-71657200D01*
X166690476Y-71657200D02*
X166595238Y-71704819D01*
X166595238Y-71704819D02*
X166309524Y-71704819D01*
X166309524Y-71704819D02*
X166214286Y-71657200D01*
X166214286Y-71657200D02*
X166166667Y-71609580D01*
D11*
%TO.C,U6*%
X169500000Y-83060000D02*
X170300000Y-83060000D01*
X169500000Y-83060000D02*
X168700000Y-83060000D01*
X169500000Y-79940000D02*
X170300000Y-79940000D01*
X169500000Y-79940000D02*
X168700000Y-79940000D01*
X171040000Y-83340000D02*
X170560000Y-83340000D01*
X170800000Y-83010000D01*
X171040000Y-83340000D01*
G36*
X171040000Y-83340000D02*
G01*
X170560000Y-83340000D01*
X170800000Y-83010000D01*
X171040000Y-83340000D01*
G37*
%TO.C,U7*%
X118355000Y-95860000D02*
X118355000Y-106140000D01*
X118355000Y-106140000D02*
X123655000Y-106140000D01*
X120005000Y-95860000D02*
X118355000Y-95860000D01*
X123655000Y-95860000D02*
X122005000Y-95860000D01*
X123655000Y-106140000D02*
X123655000Y-95860000D01*
X122005000Y-95860000D02*
G75*
G02*
X120005000Y-95860000I-1000000J0D01*
G01*
%TO.C,U5*%
X194870000Y-83870000D02*
X196500000Y-83870000D01*
X194870000Y-85500000D02*
X194870000Y-83870000D01*
D10*
X195230000Y-84230000D02*
X195230000Y-96930000D01*
X195230000Y-96930000D02*
X202850000Y-96930000D01*
X202850000Y-84230000D02*
X195230000Y-84230000D01*
X202850000Y-96930000D02*
X202850000Y-84230000D01*
D11*
%TO.C,R18*%
X182822936Y-91090000D02*
X184277064Y-91090000D01*
X182822936Y-92910000D02*
X184277064Y-92910000D01*
%TO.C,R7*%
X163090000Y-118227064D02*
X163090000Y-116772936D01*
X164910000Y-118227064D02*
X164910000Y-116772936D01*
%TO.C,R13*%
X159090000Y-118277064D02*
X159090000Y-116822936D01*
X160910000Y-118277064D02*
X160910000Y-116822936D01*
%TO.C,C5*%
X129090000Y-102648752D02*
X129090000Y-101226248D01*
X130910000Y-102648752D02*
X130910000Y-101226248D01*
%TO.C,R17*%
X182822936Y-88090000D02*
X184277064Y-88090000D01*
X182822936Y-89910000D02*
X184277064Y-89910000D01*
%TO.C,U4*%
X171940000Y-86890000D02*
X171940000Y-107330000D01*
X171940000Y-107330000D02*
X176440000Y-107330000D01*
X173190000Y-86890000D02*
X171940000Y-86890000D01*
X176440000Y-86890000D02*
X175190000Y-86890000D01*
X176440000Y-107330000D02*
X176440000Y-86890000D01*
X168940000Y-86830000D02*
X179440000Y-86830000D01*
X179440000Y-107390000D01*
X168940000Y-107390000D01*
X168940000Y-86830000D01*
X175190000Y-86890000D02*
G75*
G02*
X173190000Y-86890000I-1000000J0D01*
G01*
%TO.C,R12*%
X175090000Y-118277064D02*
X175090000Y-116822936D01*
X176910000Y-118277064D02*
X176910000Y-116822936D01*
%TO.C,D2*%
X163045000Y-72685000D02*
X159955000Y-72685000D01*
X161500000Y-78235000D02*
G75*
G02*
X159955170Y-72685000I0J2990000D01*
G01*
X163044830Y-72685000D02*
G75*
G02*
X161500000Y-78235000I-1544830J-2560000D01*
G01*
X164000000Y-75245000D02*
G75*
G02*
X159000000Y-75245000I-2500000J0D01*
G01*
X159000000Y-75245000D02*
G75*
G02*
X164000000Y-75245000I2500000J0D01*
G01*
%TO.C,C4*%
X187152500Y-76211252D02*
X187152500Y-74788748D01*
X188972500Y-76211252D02*
X188972500Y-74788748D01*
%TO.C,R4*%
X174420000Y-59880000D02*
X174420000Y-60650000D01*
X174420000Y-67960000D02*
X174420000Y-67190000D01*
X173050000Y-67190000D02*
X175790000Y-67190000D01*
X175790000Y-60650000D01*
X173050000Y-60650000D01*
X173050000Y-67190000D01*
%TO.C,D1*%
X155545000Y-72710000D02*
X152455000Y-72710000D01*
X154000000Y-78260000D02*
G75*
G02*
X152455170Y-72710000I0J2990000D01*
G01*
X155544830Y-72710000D02*
G75*
G02*
X154000000Y-78260000I-1544830J-2560000D01*
G01*
X156500000Y-75270000D02*
G75*
G02*
X151500000Y-75270000I-2500000J0D01*
G01*
X151500000Y-75270000D02*
G75*
G02*
X156500000Y-75270000I2500000J0D01*
G01*
%TO.C,R5*%
X182822936Y-94090000D02*
X184277064Y-94090000D01*
X182822936Y-95910000D02*
X184277064Y-95910000D01*
%TO.C,U1*%
X131940000Y-64050000D02*
X131940000Y-74330000D01*
X131940000Y-74330000D02*
X133190000Y-74330000D01*
X135190000Y-74330000D02*
X136440000Y-74330000D01*
X136440000Y-64050000D02*
X131940000Y-64050000D01*
X136440000Y-74330000D02*
X136440000Y-64050000D01*
X139440000Y-74390000D02*
X128940000Y-74390000D01*
X128940000Y-63990000D01*
X139440000Y-63990000D01*
X139440000Y-74390000D01*
X133190000Y-74330000D02*
G75*
G02*
X135190000Y-74330000I1000000J0D01*
G01*
%TO.C,J1*%
X109880000Y-74997500D02*
X120120000Y-74997500D01*
X109880000Y-78617500D02*
X120120000Y-78617500D01*
X109880000Y-79617500D02*
X120120000Y-79617500D01*
X109880000Y-83617500D02*
X120120000Y-83617500D01*
X109880000Y-85737500D02*
X109880000Y-74997500D01*
X112200000Y-85737500D02*
X109880000Y-85737500D01*
X120120000Y-74997500D02*
X120120000Y-85737500D01*
X120120000Y-85737500D02*
X112800000Y-85737500D01*
X112940000Y-86347500D02*
X112060000Y-86347500D01*
X112500000Y-85737500D01*
X112940000Y-86347500D01*
G36*
X112940000Y-86347500D02*
G01*
X112060000Y-86347500D01*
X112500000Y-85737500D01*
X112940000Y-86347500D01*
G37*
%TO.C,U2*%
X148120000Y-86890000D02*
X148120000Y-107330000D01*
X148120000Y-107330000D02*
X152620000Y-107330000D01*
X149370000Y-86890000D02*
X148120000Y-86890000D01*
X152620000Y-86890000D02*
X151370000Y-86890000D01*
X152620000Y-107330000D02*
X152620000Y-86890000D01*
X145120000Y-86830000D02*
X155620000Y-86830000D01*
X155620000Y-107390000D01*
X145120000Y-107390000D01*
X145120000Y-86830000D01*
X151370000Y-86890000D02*
G75*
G02*
X149370000Y-86890000I-1000000J0D01*
G01*
%TO.C,SW1*%
X156250000Y-126000000D02*
X156250000Y-127500000D01*
X157500000Y-130000000D02*
X162000000Y-130000000D01*
X162000000Y-123500000D02*
X157500000Y-123500000D01*
X163250000Y-127500000D02*
X163250000Y-126000000D01*
%TO.C,R6*%
X182822936Y-97090000D02*
X184277064Y-97090000D01*
X182822936Y-98910000D02*
X184277064Y-98910000D01*
%TO.C,R11*%
X182822936Y-85090000D02*
X184277064Y-85090000D01*
X182822936Y-86910000D02*
X184277064Y-86910000D01*
%TO.C,R14*%
X182822936Y-103590000D02*
X184277064Y-103590000D01*
X182822936Y-105410000D02*
X184277064Y-105410000D01*
%TO.C,R19*%
X109590000Y-104277064D02*
X109590000Y-102822936D01*
X111410000Y-104277064D02*
X111410000Y-102822936D01*
%TO.C,R2*%
X160500000Y-59640000D02*
X160500000Y-60410000D01*
X160500000Y-67720000D02*
X160500000Y-66950000D01*
X159130000Y-66950000D02*
X161870000Y-66950000D01*
X161870000Y-60410000D01*
X159130000Y-60410000D01*
X159130000Y-66950000D01*
%TO.C,C1*%
X121240113Y-60525000D02*
X121740113Y-60525000D01*
X121490113Y-60275000D02*
X121490113Y-60775000D01*
X124044888Y-59420000D02*
X124044888Y-60960000D01*
X124044888Y-63040000D02*
X124044888Y-64580000D01*
X124084888Y-59420000D02*
X124084888Y-60960000D01*
X124084888Y-63040000D02*
X124084888Y-64580000D01*
X124124888Y-59421000D02*
X124124888Y-60960000D01*
X124124888Y-63040000D02*
X124124888Y-64579000D01*
X124164888Y-59423000D02*
X124164888Y-60960000D01*
X124164888Y-63040000D02*
X124164888Y-64577000D01*
X124204888Y-59425000D02*
X124204888Y-60960000D01*
X124204888Y-63040000D02*
X124204888Y-64575000D01*
X124244888Y-59428000D02*
X124244888Y-60960000D01*
X124244888Y-63040000D02*
X124244888Y-64572000D01*
X124284888Y-59431000D02*
X124284888Y-60960000D01*
X124284888Y-63040000D02*
X124284888Y-64569000D01*
X124324888Y-59435000D02*
X124324888Y-60960000D01*
X124324888Y-63040000D02*
X124324888Y-64565000D01*
X124364888Y-59440000D02*
X124364888Y-60960000D01*
X124364888Y-63040000D02*
X124364888Y-64560000D01*
X124404888Y-59445000D02*
X124404888Y-60960000D01*
X124404888Y-63040000D02*
X124404888Y-64555000D01*
X124444888Y-59451000D02*
X124444888Y-60960000D01*
X124444888Y-63040000D02*
X124444888Y-64549000D01*
X124484888Y-59457000D02*
X124484888Y-60960000D01*
X124484888Y-63040000D02*
X124484888Y-64543000D01*
X124524888Y-59464000D02*
X124524888Y-60960000D01*
X124524888Y-63040000D02*
X124524888Y-64536000D01*
X124564888Y-59472000D02*
X124564888Y-60960000D01*
X124564888Y-63040000D02*
X124564888Y-64528000D01*
X124604888Y-59481000D02*
X124604888Y-60960000D01*
X124604888Y-63040000D02*
X124604888Y-64519000D01*
X124644888Y-59490000D02*
X124644888Y-60960000D01*
X124644888Y-63040000D02*
X124644888Y-64510000D01*
X124684888Y-59499000D02*
X124684888Y-60960000D01*
X124684888Y-63040000D02*
X124684888Y-64501000D01*
X124724888Y-59510000D02*
X124724888Y-60960000D01*
X124724888Y-63040000D02*
X124724888Y-64490000D01*
X124764888Y-59521000D02*
X124764888Y-60960000D01*
X124764888Y-63040000D02*
X124764888Y-64479000D01*
X124804888Y-59533000D02*
X124804888Y-60960000D01*
X124804888Y-63040000D02*
X124804888Y-64467000D01*
X124844888Y-59545000D02*
X124844888Y-60960000D01*
X124844888Y-63040000D02*
X124844888Y-64455000D01*
X124884888Y-59558000D02*
X124884888Y-60960000D01*
X124884888Y-63040000D02*
X124884888Y-64442000D01*
X124924888Y-59572000D02*
X124924888Y-60960000D01*
X124924888Y-63040000D02*
X124924888Y-64428000D01*
X124964888Y-59587000D02*
X124964888Y-60960000D01*
X124964888Y-63040000D02*
X124964888Y-64413000D01*
X125004888Y-59602000D02*
X125004888Y-60960000D01*
X125004888Y-63040000D02*
X125004888Y-64398000D01*
X125044888Y-59618000D02*
X125044888Y-60960000D01*
X125044888Y-63040000D02*
X125044888Y-64382000D01*
X125084888Y-59635000D02*
X125084888Y-60960000D01*
X125084888Y-63040000D02*
X125084888Y-64365000D01*
X125124888Y-59653000D02*
X125124888Y-60960000D01*
X125124888Y-63040000D02*
X125124888Y-64347000D01*
X125164888Y-59671000D02*
X125164888Y-60960000D01*
X125164888Y-63040000D02*
X125164888Y-64329000D01*
X125204888Y-59691000D02*
X125204888Y-60960000D01*
X125204888Y-63040000D02*
X125204888Y-64309000D01*
X125244888Y-59711000D02*
X125244888Y-60960000D01*
X125244888Y-63040000D02*
X125244888Y-64289000D01*
X125284888Y-59732000D02*
X125284888Y-60960000D01*
X125284888Y-63040000D02*
X125284888Y-64268000D01*
X125324888Y-59754000D02*
X125324888Y-60960000D01*
X125324888Y-63040000D02*
X125324888Y-64246000D01*
X125364888Y-59777000D02*
X125364888Y-60960000D01*
X125364888Y-63040000D02*
X125364888Y-64223000D01*
X125404888Y-59801000D02*
X125404888Y-60960000D01*
X125404888Y-63040000D02*
X125404888Y-64199000D01*
X125444888Y-59825000D02*
X125444888Y-60960000D01*
X125444888Y-63040000D02*
X125444888Y-64175000D01*
X125484888Y-59851000D02*
X125484888Y-60960000D01*
X125484888Y-63040000D02*
X125484888Y-64149000D01*
X125524888Y-59878000D02*
X125524888Y-60960000D01*
X125524888Y-63040000D02*
X125524888Y-64122000D01*
X125564888Y-59906000D02*
X125564888Y-60960000D01*
X125564888Y-63040000D02*
X125564888Y-64094000D01*
X125604888Y-59935000D02*
X125604888Y-60960000D01*
X125604888Y-63040000D02*
X125604888Y-64065000D01*
X125644888Y-59965000D02*
X125644888Y-60960000D01*
X125644888Y-63040000D02*
X125644888Y-64035000D01*
X125684888Y-59997000D02*
X125684888Y-60960000D01*
X125684888Y-63040000D02*
X125684888Y-64003000D01*
X125724888Y-60030000D02*
X125724888Y-60960000D01*
X125724888Y-63040000D02*
X125724888Y-63970000D01*
X125764888Y-60064000D02*
X125764888Y-60960000D01*
X125764888Y-63040000D02*
X125764888Y-63936000D01*
X125804888Y-60099000D02*
X125804888Y-60960000D01*
X125804888Y-63040000D02*
X125804888Y-63901000D01*
X125844888Y-60136000D02*
X125844888Y-60960000D01*
X125844888Y-63040000D02*
X125844888Y-63864000D01*
X125884888Y-60175000D02*
X125884888Y-60960000D01*
X125884888Y-63040000D02*
X125884888Y-63825000D01*
X125924888Y-60215000D02*
X125924888Y-60960000D01*
X125924888Y-63040000D02*
X125924888Y-63785000D01*
X125964888Y-60257000D02*
X125964888Y-60960000D01*
X125964888Y-63040000D02*
X125964888Y-63743000D01*
X126004888Y-60301000D02*
X126004888Y-60960000D01*
X126004888Y-63040000D02*
X126004888Y-63699000D01*
X126044888Y-60348000D02*
X126044888Y-60960000D01*
X126044888Y-63040000D02*
X126044888Y-63652000D01*
X126084888Y-60396000D02*
X126084888Y-63604000D01*
X126124888Y-60447000D02*
X126124888Y-63553000D01*
X126164888Y-60501000D02*
X126164888Y-63499000D01*
X126204888Y-60557000D02*
X126204888Y-63443000D01*
X126244888Y-60617000D02*
X126244888Y-63383000D01*
X126284888Y-60681000D02*
X126284888Y-63319000D01*
X126324888Y-60749000D02*
X126324888Y-63251000D01*
X126364888Y-60823000D02*
X126364888Y-63177000D01*
X126404888Y-60902000D02*
X126404888Y-63098000D01*
X126444888Y-60989000D02*
X126444888Y-63011000D01*
X126484888Y-61086000D02*
X126484888Y-62914000D01*
X126524888Y-61195000D02*
X126524888Y-62805000D01*
X126564888Y-61323000D02*
X126564888Y-62677000D01*
X126604888Y-61483000D02*
X126604888Y-62517000D01*
X126644888Y-61717000D02*
X126644888Y-62283000D01*
X126664888Y-62000000D02*
G75*
G02*
X121424888Y-62000000I-2620000J0D01*
G01*
X121424888Y-62000000D02*
G75*
G02*
X126664888Y-62000000I2620000J0D01*
G01*
%TO.C,R16*%
X182822936Y-107090000D02*
X184277064Y-107090000D01*
X182822936Y-108910000D02*
X184277064Y-108910000D01*
%TO.C,U3*%
X160060000Y-86890000D02*
X160060000Y-107330000D01*
X160060000Y-107330000D02*
X164560000Y-107330000D01*
X161310000Y-86890000D02*
X160060000Y-86890000D01*
X164560000Y-86890000D02*
X163310000Y-86890000D01*
X164560000Y-107330000D02*
X164560000Y-86890000D01*
X157060000Y-86830000D02*
X167560000Y-86830000D01*
X167560000Y-107390000D01*
X157060000Y-107390000D01*
X157060000Y-86830000D01*
X163310000Y-86890000D02*
G75*
G02*
X161310000Y-86890000I-1000000J0D01*
G01*
%TO.C,C3*%
X155090000Y-118273752D02*
X155090000Y-116851248D01*
X156910000Y-118273752D02*
X156910000Y-116851248D01*
%TO.C,R9*%
X167090000Y-118277064D02*
X167090000Y-116822936D01*
X168910000Y-118277064D02*
X168910000Y-116822936D01*
%TO.C,SW2*%
X135740000Y-98190000D02*
X136050000Y-98190000D01*
X135740000Y-107010000D02*
X135740000Y-98190000D01*
X135740000Y-107010000D02*
X136050000Y-107010000D01*
X139950000Y-98190000D02*
X140260000Y-98190000D01*
X140260000Y-98190000D02*
X140260000Y-107010000D01*
X140260000Y-107010000D02*
X139950000Y-107010000D01*
X140460000Y-100600000D02*
X140960000Y-101100000D01*
X140960000Y-100100000D02*
X140460000Y-100600000D01*
X140960000Y-101100000D02*
X140960000Y-100100000D01*
%TO.C,D5*%
X178045000Y-72710000D02*
X174955000Y-72710000D01*
X176500000Y-78260000D02*
G75*
G02*
X174955170Y-72710000I0J2990000D01*
G01*
X178044830Y-72710000D02*
G75*
G02*
X176500000Y-78260000I-1544830J-2560000D01*
G01*
X179000000Y-75270000D02*
G75*
G02*
X174000000Y-75270000I-2500000J0D01*
G01*
X174000000Y-75270000D02*
G75*
G02*
X179000000Y-75270000I2500000J0D01*
G01*
%TO.C,D4*%
X128140000Y-81500000D02*
X130430000Y-81500000D01*
X131210000Y-80030000D02*
X131210000Y-82970000D01*
X131330000Y-80030000D02*
X131330000Y-82970000D01*
X131450000Y-80030000D02*
X131450000Y-82970000D01*
X138160000Y-81500000D02*
X135870000Y-81500000D01*
X130430000Y-80030000D02*
X135870000Y-80030000D01*
X135870000Y-82970000D01*
X130430000Y-82970000D01*
X130430000Y-80030000D01*
%TO.C,C2*%
X142855113Y-62783000D02*
X142855113Y-62217000D01*
X142895113Y-63017000D02*
X142895113Y-61983000D01*
X142935113Y-63177000D02*
X142935113Y-61823000D01*
X142975113Y-63305000D02*
X142975113Y-61695000D01*
X143015113Y-63414000D02*
X143015113Y-61586000D01*
X143055113Y-63511000D02*
X143055113Y-61489000D01*
X143095113Y-63598000D02*
X143095113Y-61402000D01*
X143135113Y-63677000D02*
X143135113Y-61323000D01*
X143175113Y-63751000D02*
X143175113Y-61249000D01*
X143215113Y-63819000D02*
X143215113Y-61181000D01*
X143255113Y-63883000D02*
X143255113Y-61117000D01*
X143295113Y-63943000D02*
X143295113Y-61057000D01*
X143335113Y-63999000D02*
X143335113Y-61001000D01*
X143375113Y-64053000D02*
X143375113Y-60947000D01*
X143415113Y-64104000D02*
X143415113Y-60896000D01*
X143455113Y-61460000D02*
X143455113Y-60848000D01*
X143455113Y-64152000D02*
X143455113Y-63540000D01*
X143495113Y-61460000D02*
X143495113Y-60801000D01*
X143495113Y-64199000D02*
X143495113Y-63540000D01*
X143535113Y-61460000D02*
X143535113Y-60757000D01*
X143535113Y-64243000D02*
X143535113Y-63540000D01*
X143575113Y-61460000D02*
X143575113Y-60715000D01*
X143575113Y-64285000D02*
X143575113Y-63540000D01*
X143615113Y-61460000D02*
X143615113Y-60675000D01*
X143615113Y-64325000D02*
X143615113Y-63540000D01*
X143655113Y-61460000D02*
X143655113Y-60636000D01*
X143655113Y-64364000D02*
X143655113Y-63540000D01*
X143695113Y-61460000D02*
X143695113Y-60599000D01*
X143695113Y-64401000D02*
X143695113Y-63540000D01*
X143735113Y-61460000D02*
X143735113Y-60564000D01*
X143735113Y-64436000D02*
X143735113Y-63540000D01*
X143775113Y-61460000D02*
X143775113Y-60530000D01*
X143775113Y-64470000D02*
X143775113Y-63540000D01*
X143815113Y-61460000D02*
X143815113Y-60497000D01*
X143815113Y-64503000D02*
X143815113Y-63540000D01*
X143855113Y-61460000D02*
X143855113Y-60465000D01*
X143855113Y-64535000D02*
X143855113Y-63540000D01*
X143895113Y-61460000D02*
X143895113Y-60435000D01*
X143895113Y-64565000D02*
X143895113Y-63540000D01*
X143935113Y-61460000D02*
X143935113Y-60406000D01*
X143935113Y-64594000D02*
X143935113Y-63540000D01*
X143975113Y-61460000D02*
X143975113Y-60378000D01*
X143975113Y-64622000D02*
X143975113Y-63540000D01*
X144015113Y-61460000D02*
X144015113Y-60351000D01*
X144015113Y-64649000D02*
X144015113Y-63540000D01*
X144055113Y-61460000D02*
X144055113Y-60325000D01*
X144055113Y-64675000D02*
X144055113Y-63540000D01*
X144095113Y-61460000D02*
X144095113Y-60301000D01*
X144095113Y-64699000D02*
X144095113Y-63540000D01*
X144135113Y-61460000D02*
X144135113Y-60277000D01*
X144135113Y-64723000D02*
X144135113Y-63540000D01*
X144175113Y-61460000D02*
X144175113Y-60254000D01*
X144175113Y-64746000D02*
X144175113Y-63540000D01*
X144215113Y-61460000D02*
X144215113Y-60232000D01*
X144215113Y-64768000D02*
X144215113Y-63540000D01*
X144255113Y-61460000D02*
X144255113Y-60211000D01*
X144255113Y-64789000D02*
X144255113Y-63540000D01*
X144295113Y-61460000D02*
X144295113Y-60191000D01*
X144295113Y-64809000D02*
X144295113Y-63540000D01*
X144335113Y-61460000D02*
X144335113Y-60171000D01*
X144335113Y-64829000D02*
X144335113Y-63540000D01*
X144375113Y-61460000D02*
X144375113Y-60153000D01*
X144375113Y-64847000D02*
X144375113Y-63540000D01*
X144415113Y-61460000D02*
X144415113Y-60135000D01*
X144415113Y-64865000D02*
X144415113Y-63540000D01*
X144455113Y-61460000D02*
X144455113Y-60118000D01*
X144455113Y-64882000D02*
X144455113Y-63540000D01*
X144495113Y-61460000D02*
X144495113Y-60102000D01*
X144495113Y-64898000D02*
X144495113Y-63540000D01*
X144535113Y-61460000D02*
X144535113Y-60087000D01*
X144535113Y-64913000D02*
X144535113Y-63540000D01*
X144575113Y-61460000D02*
X144575113Y-60072000D01*
X144575113Y-64928000D02*
X144575113Y-63540000D01*
X144615113Y-61460000D02*
X144615113Y-60058000D01*
X144615113Y-64942000D02*
X144615113Y-63540000D01*
X144655113Y-61460000D02*
X144655113Y-60045000D01*
X144655113Y-64955000D02*
X144655113Y-63540000D01*
X144695113Y-61460000D02*
X144695113Y-60033000D01*
X144695113Y-64967000D02*
X144695113Y-63540000D01*
X144735113Y-61460000D02*
X144735113Y-60021000D01*
X144735113Y-64979000D02*
X144735113Y-63540000D01*
X144775113Y-61460000D02*
X144775113Y-60010000D01*
X144775113Y-64990000D02*
X144775113Y-63540000D01*
X144815113Y-61460000D02*
X144815113Y-59999000D01*
X144815113Y-65001000D02*
X144815113Y-63540000D01*
X144855113Y-61460000D02*
X144855113Y-59990000D01*
X144855113Y-65010000D02*
X144855113Y-63540000D01*
X144895113Y-61460000D02*
X144895113Y-59981000D01*
X144895113Y-65019000D02*
X144895113Y-63540000D01*
X144935113Y-61460000D02*
X144935113Y-59972000D01*
X144935113Y-65028000D02*
X144935113Y-63540000D01*
X144975113Y-61460000D02*
X144975113Y-59964000D01*
X144975113Y-65036000D02*
X144975113Y-63540000D01*
X145015113Y-61460000D02*
X145015113Y-59957000D01*
X145015113Y-65043000D02*
X145015113Y-63540000D01*
X145055113Y-61460000D02*
X145055113Y-59951000D01*
X145055113Y-65049000D02*
X145055113Y-63540000D01*
X145095113Y-61460000D02*
X145095113Y-59945000D01*
X145095113Y-65055000D02*
X145095113Y-63540000D01*
X145135113Y-61460000D02*
X145135113Y-59940000D01*
X145135113Y-65060000D02*
X145135113Y-63540000D01*
X145175113Y-61460000D02*
X145175113Y-59935000D01*
X145175113Y-65065000D02*
X145175113Y-63540000D01*
X145215113Y-61460000D02*
X145215113Y-59931000D01*
X145215113Y-65069000D02*
X145215113Y-63540000D01*
X145255113Y-61460000D02*
X145255113Y-59928000D01*
X145255113Y-65072000D02*
X145255113Y-63540000D01*
X145295113Y-61460000D02*
X145295113Y-59925000D01*
X145295113Y-65075000D02*
X145295113Y-63540000D01*
X145335113Y-61460000D02*
X145335113Y-59923000D01*
X145335113Y-65077000D02*
X145335113Y-63540000D01*
X145375113Y-61460000D02*
X145375113Y-59921000D01*
X145375113Y-65079000D02*
X145375113Y-63540000D01*
X145415113Y-61460000D02*
X145415113Y-59920000D01*
X145415113Y-65080000D02*
X145415113Y-63540000D01*
X145455113Y-61460000D02*
X145455113Y-59920000D01*
X145455113Y-65080000D02*
X145455113Y-63540000D01*
X148009888Y-64225000D02*
X148009888Y-63725000D01*
X148259888Y-63975000D02*
X147759888Y-63975000D01*
X148075113Y-62500000D02*
G75*
G02*
X142835113Y-62500000I-2620000J0D01*
G01*
X142835113Y-62500000D02*
G75*
G02*
X148075113Y-62500000I2620000J0D01*
G01*
%TO.C,R1*%
X155000000Y-59560000D02*
X155000000Y-60330000D01*
X155000000Y-67640000D02*
X155000000Y-66870000D01*
X153630000Y-66870000D02*
X156370000Y-66870000D01*
X156370000Y-60330000D01*
X153630000Y-60330000D01*
X153630000Y-66870000D01*
%TO.C,R8*%
X182822936Y-100090000D02*
X184277064Y-100090000D01*
X182822936Y-101910000D02*
X184277064Y-101910000D01*
%TO.C,R15*%
X179090000Y-118277064D02*
X179090000Y-116822936D01*
X180910000Y-118277064D02*
X180910000Y-116822936D01*
%TO.C,R10*%
X171590000Y-118277064D02*
X171590000Y-116822936D01*
X173410000Y-118277064D02*
X173410000Y-116822936D01*
%TO.C,L1*%
X148220000Y-75500000D02*
G75*
G02*
X140780000Y-75500000I-3720000J0D01*
G01*
X140780000Y-75500000D02*
G75*
G02*
X148220000Y-75500000I3720000J0D01*
G01*
%TO.C,R3*%
X168000000Y-59880000D02*
X168000000Y-60650000D01*
X168000000Y-67960000D02*
X168000000Y-67190000D01*
X166630000Y-67190000D02*
X169370000Y-67190000D01*
X169370000Y-60650000D01*
X166630000Y-60650000D01*
X166630000Y-67190000D01*
%TO.C,R20*%
X109590000Y-98277064D02*
X109590000Y-96822936D01*
X111410000Y-98277064D02*
X111410000Y-96822936D01*
%TO.C,D3*%
X170545000Y-72710000D02*
X167455000Y-72710000D01*
X169000000Y-78260000D02*
G75*
G02*
X167455170Y-72710000I0J2990000D01*
G01*
X170544830Y-72710000D02*
G75*
G02*
X169000000Y-78260000I-1544830J-2560000D01*
G01*
X171500000Y-75270000D02*
G75*
G02*
X166500000Y-75270000I-2500000J0D01*
G01*
X166500000Y-75270000D02*
G75*
G02*
X171500000Y-75270000I2500000J0D01*
G01*
%TD*%
M02*
