%TF.GenerationSoftware,KiCad,Pcbnew,9.0.3*%
%TF.CreationDate,2025-12-16T11:33:02+01:00*%
%TF.ProjectId,PTP_LV1,5054505f-4c56-4312-9e6b-696361645f70,rev?*%
%TF.SameCoordinates,Original*%
%TF.FileFunction,Paste,Top*%
%TF.FilePolarity,Positive*%
%FSLAX46Y46*%
G04 Gerber Fmt 4.6, Leading zero omitted, Abs format (unit mm)*
G04 Created by KiCad (PCBNEW 9.0.3) date 2025-12-16 11:33:02*
%MOMM*%
%LPD*%
G01*
G04 APERTURE LIST*
G04 Aperture macros list*
%AMRoundRect*
0 Rectangle with rounded corners*
0 $1 Rounding radius*
0 $2 $3 $4 $5 $6 $7 $8 $9 X,Y pos of 4 corners*
0 Add a 4 corners polygon primitive as box body*
4,1,4,$2,$3,$4,$5,$6,$7,$8,$9,$2,$3,0*
0 Add four circle primitives for the rounded corners*
1,1,$1+$1,$2,$3*
1,1,$1+$1,$4,$5*
1,1,$1+$1,$6,$7*
1,1,$1+$1,$8,$9*
0 Add four rect primitives between the rounded corners*
20,1,$1+$1,$2,$3,$4,$5,0*
20,1,$1+$1,$4,$5,$6,$7,0*
20,1,$1+$1,$6,$7,$8,$9,0*
20,1,$1+$1,$8,$9,$2,$3,0*%
G04 Aperture macros list end*
%ADD10RoundRect,0.150000X0.512500X0.150000X-0.512500X0.150000X-0.512500X-0.150000X0.512500X-0.150000X0*%
%ADD11RoundRect,0.250000X-0.400000X-0.625000X0.400000X-0.625000X0.400000X0.625000X-0.400000X0.625000X0*%
%ADD12RoundRect,0.250000X0.625000X-0.400000X0.625000X0.400000X-0.625000X0.400000X-0.625000X-0.400000X0*%
%ADD13RoundRect,0.250000X0.650000X-0.412500X0.650000X0.412500X-0.650000X0.412500X-0.650000X-0.412500X0*%
G04 APERTURE END LIST*
D10*
%TO.C,U6*%
X170637500Y-82450000D03*
X170637500Y-81500000D03*
X170637500Y-80550000D03*
X168362500Y-80550000D03*
X168362500Y-81500000D03*
X168362500Y-82450000D03*
%TD*%
D11*
%TO.C,R18*%
X182000000Y-92000000D03*
X185100000Y-92000000D03*
%TD*%
D12*
%TO.C,R7*%
X164000000Y-119050000D03*
X164000000Y-115950000D03*
%TD*%
%TO.C,R13*%
X160000000Y-119100000D03*
X160000000Y-116000000D03*
%TD*%
D13*
%TO.C,C5*%
X130000000Y-103500000D03*
X130000000Y-100375000D03*
%TD*%
D11*
%TO.C,R17*%
X182000000Y-89000000D03*
X185100000Y-89000000D03*
%TD*%
D12*
%TO.C,R12*%
X176000000Y-119100000D03*
X176000000Y-116000000D03*
%TD*%
D13*
%TO.C,C4*%
X188062500Y-77062500D03*
X188062500Y-73937500D03*
%TD*%
D11*
%TO.C,R5*%
X182000000Y-95000000D03*
X185100000Y-95000000D03*
%TD*%
%TO.C,R6*%
X182000000Y-98000000D03*
X185100000Y-98000000D03*
%TD*%
%TO.C,R11*%
X182000000Y-86000000D03*
X185100000Y-86000000D03*
%TD*%
%TO.C,R14*%
X182000000Y-104500000D03*
X185100000Y-104500000D03*
%TD*%
D12*
%TO.C,R19*%
X110500000Y-105100000D03*
X110500000Y-102000000D03*
%TD*%
D11*
%TO.C,R16*%
X182000000Y-108000000D03*
X185100000Y-108000000D03*
%TD*%
D13*
%TO.C,C3*%
X156000000Y-119125000D03*
X156000000Y-116000000D03*
%TD*%
D12*
%TO.C,R9*%
X168000000Y-119100000D03*
X168000000Y-116000000D03*
%TD*%
D11*
%TO.C,R8*%
X182000000Y-101000000D03*
X185100000Y-101000000D03*
%TD*%
D12*
%TO.C,R15*%
X180000000Y-119100000D03*
X180000000Y-116000000D03*
%TD*%
%TO.C,R10*%
X172500000Y-119100000D03*
X172500000Y-116000000D03*
%TD*%
%TO.C,R20*%
X110500000Y-99100000D03*
X110500000Y-96000000D03*
%TD*%
M02*
