%TF.GenerationSoftware,KiCad,Pcbnew,9.0.3*%
%TF.CreationDate,2025-12-16T11:33:02+01:00*%
%TF.ProjectId,PTP_LV1,5054505f-4c56-4312-9e6b-696361645f70,rev?*%
%TF.SameCoordinates,Original*%
%TF.FileFunction,Soldermask,Bot*%
%TF.FilePolarity,Negative*%
%FSLAX46Y46*%
G04 Gerber Fmt 4.6, Leading zero omitted, Abs format (unit mm)*
G04 Created by KiCad (PCBNEW 9.0.3) date 2025-12-16 11:33:02*
%MOMM*%
%LPD*%
G01*
G04 APERTURE LIST*
G04 Aperture macros list*
%AMRoundRect*
0 Rectangle with rounded corners*
0 $1 Rounding radius*
0 $2 $3 $4 $5 $6 $7 $8 $9 X,Y pos of 4 corners*
0 Add a 4 corners polygon primitive as box body*
4,1,4,$2,$3,$4,$5,$6,$7,$8,$9,$2,$3,0*
0 Add four circle primitives for the rounded corners*
1,1,$1+$1,$2,$3*
1,1,$1+$1,$4,$5*
1,1,$1+$1,$6,$7*
1,1,$1+$1,$8,$9*
0 Add four rect primitives between the rounded corners*
20,1,$1+$1,$2,$3,$4,$5,0*
20,1,$1+$1,$4,$5,$6,$7,0*
20,1,$1+$1,$6,$7,$8,$9,0*
20,1,$1+$1,$8,$9,$2,$3,0*%
G04 Aperture macros list end*
%ADD10RoundRect,0.250000X-0.550000X-0.550000X0.550000X-0.550000X0.550000X0.550000X-0.550000X0.550000X0*%
%ADD11C,1.600000*%
%ADD12R,1.600000X1.600000*%
%ADD13RoundRect,0.250000X-0.950000X-0.550000X0.950000X-0.550000X0.950000X0.550000X-0.950000X0.550000X0*%
%ADD14O,2.400000X1.600000*%
%ADD15R,1.800000X1.800000*%
%ADD16C,1.800000*%
%ADD17C,5.500000*%
%ADD18RoundRect,0.250000X0.950000X0.550000X-0.950000X0.550000X-0.950000X-0.550000X0.950000X-0.550000X0*%
%ADD19RoundRect,0.250001X-1.149999X-1.149999X1.149999X-1.149999X1.149999X1.149999X-1.149999X1.149999X0*%
%ADD20C,2.800000*%
%ADD21C,2.000000*%
%ADD22O,3.500000X2.200000*%
%ADD23R,2.500000X1.500000*%
%ADD24O,2.500000X1.500000*%
%ADD25RoundRect,0.249999X-0.850001X-0.850001X0.850001X-0.850001X0.850001X0.850001X-0.850001X0.850001X0*%
%ADD26C,2.200000*%
%ADD27RoundRect,0.250000X0.550000X0.550000X-0.550000X0.550000X-0.550000X-0.550000X0.550000X-0.550000X0*%
%ADD28C,2.400000*%
G04 APERTURE END LIST*
D10*
%TO.C,U7*%
X117195000Y-97190000D03*
D11*
X117195000Y-99730000D03*
X117195000Y-102270000D03*
X117195000Y-104810000D03*
X124815000Y-104810000D03*
X124815000Y-102270000D03*
X124815000Y-99730000D03*
X124815000Y-97190000D03*
%TD*%
D12*
%TO.C,U5*%
X196500000Y-85500000D03*
D11*
X196500000Y-88040000D03*
X196500000Y-90580000D03*
X196500000Y-93120000D03*
X196500000Y-95660000D03*
X201580000Y-95660000D03*
X201580000Y-93120000D03*
X201580000Y-90580000D03*
X201580000Y-88040000D03*
X201580000Y-85500000D03*
%TD*%
D13*
%TO.C,U4*%
X170380000Y-88220000D03*
D14*
X170380000Y-90760000D03*
X170380000Y-93300000D03*
X170380000Y-95840000D03*
X170380000Y-98380000D03*
X170380000Y-100920000D03*
X170380000Y-103460000D03*
X170380000Y-106000000D03*
X178000000Y-106000000D03*
X178000000Y-103460000D03*
X178000000Y-100920000D03*
X178000000Y-98380000D03*
X178000000Y-95840000D03*
X178000000Y-93300000D03*
X178000000Y-90760000D03*
X178000000Y-88220000D03*
%TD*%
D15*
%TO.C,D2*%
X161500000Y-73975000D03*
D16*
X161500000Y-76515000D03*
%TD*%
D17*
%TO.C,H1*%
X114000000Y-63000000D03*
%TD*%
D11*
%TO.C,R4*%
X174420000Y-69000000D03*
X174420000Y-58840000D03*
%TD*%
D15*
%TO.C,D1*%
X154000000Y-74000000D03*
D16*
X154000000Y-76540000D03*
%TD*%
D17*
%TO.C,H2*%
X198000000Y-63000000D03*
%TD*%
D18*
%TO.C,U1*%
X138000000Y-73000000D03*
D14*
X138000000Y-70460000D03*
X138000000Y-67920000D03*
X138000000Y-65380000D03*
X130380000Y-65380000D03*
X130380000Y-67920000D03*
X130380000Y-70460000D03*
X130380000Y-73000000D03*
%TD*%
D19*
%TO.C,J1*%
X112500000Y-81617500D03*
D20*
X117500000Y-81617500D03*
%TD*%
D13*
%TO.C,U2*%
X146560000Y-88220000D03*
D14*
X146560000Y-90760000D03*
X146560000Y-93300000D03*
X146560000Y-95840000D03*
X146560000Y-98380000D03*
X146560000Y-100920000D03*
X146560000Y-103460000D03*
X146560000Y-106000000D03*
X154180000Y-106000000D03*
X154180000Y-103460000D03*
X154180000Y-100920000D03*
X154180000Y-98380000D03*
X154180000Y-95840000D03*
X154180000Y-93300000D03*
X154180000Y-90760000D03*
X154180000Y-88220000D03*
%TD*%
D21*
%TO.C,SW1*%
X156500000Y-124500000D03*
X163000000Y-124500000D03*
X156500000Y-129000000D03*
X163000000Y-129000000D03*
%TD*%
D11*
%TO.C,R2*%
X160500000Y-68760000D03*
X160500000Y-58600000D03*
%TD*%
D10*
%TO.C,C1*%
X123044888Y-62000000D03*
D11*
X125044888Y-62000000D03*
%TD*%
D17*
%TO.C,H4*%
X114000000Y-127000000D03*
%TD*%
D13*
%TO.C,U3*%
X158500000Y-88220000D03*
D14*
X158500000Y-90760000D03*
X158500000Y-93300000D03*
X158500000Y-95840000D03*
X158500000Y-98380000D03*
X158500000Y-100920000D03*
X158500000Y-103460000D03*
X158500000Y-106000000D03*
X166120000Y-106000000D03*
X166120000Y-103460000D03*
X166120000Y-100920000D03*
X166120000Y-98380000D03*
X166120000Y-95840000D03*
X166120000Y-93300000D03*
X166120000Y-90760000D03*
X166120000Y-88220000D03*
%TD*%
D22*
%TO.C,SW2*%
X138000000Y-98500000D03*
X138000000Y-106700000D03*
D23*
X138000000Y-100600000D03*
D24*
X138000000Y-102600000D03*
X138000000Y-104600000D03*
%TD*%
D15*
%TO.C,D5*%
X176500000Y-74000000D03*
D16*
X176500000Y-76540000D03*
%TD*%
D25*
%TO.C,D4*%
X126800000Y-81500000D03*
D26*
X139500000Y-81500000D03*
%TD*%
D27*
%TO.C,C2*%
X146455113Y-62500000D03*
D11*
X144455113Y-62500000D03*
%TD*%
D17*
%TO.C,H3*%
X198000000Y-127000000D03*
%TD*%
D11*
%TO.C,R1*%
X155000000Y-68680000D03*
X155000000Y-58520000D03*
%TD*%
D28*
%TO.C,L1*%
X144500000Y-77000000D03*
X144500000Y-74000000D03*
%TD*%
D11*
%TO.C,R3*%
X168000000Y-69000000D03*
X168000000Y-58840000D03*
%TD*%
D15*
%TO.C,D3*%
X169000000Y-74000000D03*
D16*
X169000000Y-76540000D03*
%TD*%
M02*
