M48
; DRILL file {KiCad 9.0.3} date 2025-12-16T11:32:49+0100
; FORMAT={-:-/ absolute / metric / decimal}
; #@! TF.CreationDate,2025-12-16T11:32:49+01:00
; #@! TF.GenerationSoftware,Kicad,Pcbnew,9.0.3
; #@! TF.FileFunction,MixedPlating,1,2
FMAT,2
METRIC
; #@! TA.AperFunction,Plated,PTH,ViaDrill
T1C0.300
; #@! TA.AperFunction,Plated,PTH,ComponentDrill
T2C0.800
; #@! TA.AperFunction,Plated,PTH,ComponentDrill
T3C0.900
; #@! TA.AperFunction,Plated,PTH,ComponentDrill
T4C1.100
; #@! TA.AperFunction,Plated,PTH,ComponentDrill
T5C1.200
; #@! TA.AperFunction,Plated,PTH,ComponentDrill
T6C1.400
; #@! TA.AperFunction,Plated,PTH,ComponentDrill
T7C1.500
; #@! TA.AperFunction,NonPlated,NPTH,ComponentDrill
T8C5.500
%
G90
G05
T1
X113.5Y-99.0
X115.5Y-100.5
X118.0Y-107.0
X121.0Y-102.5
X122.5Y-95.5
X123.25Y-92.25
X137.25Y-78.25
X149.0Y-92.0
X152.5Y-86.5
X157.5Y-85.0
X159.75Y-85.75
X161.0Y-97.5
X161.5Y-91.0
X162.5Y-89.25
X163.5Y-86.0
X164.5Y-81.5
X164.5Y-98.38
X166.25Y-86.0
X166.75Y-81.5
X168.0Y-91.0
X168.5Y-107.5
X169.0Y-109.5
X169.5Y-83.5
X170.5Y-85.5
X171.405Y-91.905
X171.5Y-83.5
X173.0Y-104.0
X174.5Y-105.5
X175.25Y-81.25
X177.75Y-80.5
X190.5Y-102.5
X193.0Y-99.0
X199.5Y-96.0
T2
X117.195Y-97.19
X117.195Y-99.73
X117.195Y-102.27
X117.195Y-104.81
X123.045Y-62.0
X124.815Y-97.19
X124.815Y-99.73
X124.815Y-102.27
X124.815Y-104.81
X125.045Y-62.0
X130.38Y-65.38
X130.38Y-67.92
X130.38Y-70.46
X130.38Y-73.0
X138.0Y-65.38
X138.0Y-67.92
X138.0Y-70.46
X138.0Y-73.0
X138.0Y-100.6
X138.0Y-102.6
X138.0Y-104.6
X144.455Y-62.5
X146.455Y-62.5
X146.56Y-88.22
X146.56Y-90.76
X146.56Y-93.3
X146.56Y-95.84
X146.56Y-98.38
X146.56Y-100.92
X146.56Y-103.46
X146.56Y-106.0
X154.18Y-88.22
X154.18Y-90.76
X154.18Y-93.3
X154.18Y-95.84
X154.18Y-98.38
X154.18Y-100.92
X154.18Y-103.46
X154.18Y-106.0
X155.0Y-58.52
X155.0Y-68.68
X158.5Y-88.22
X158.5Y-90.76
X158.5Y-93.3
X158.5Y-95.84
X158.5Y-98.38
X158.5Y-100.92
X158.5Y-103.46
X158.5Y-106.0
X160.5Y-58.6
X160.5Y-68.76
X166.12Y-88.22
X166.12Y-90.76
X166.12Y-93.3
X166.12Y-95.84
X166.12Y-98.38
X166.12Y-100.92
X166.12Y-103.46
X166.12Y-106.0
X168.0Y-58.84
X168.0Y-69.0
X170.38Y-88.22
X170.38Y-90.76
X170.38Y-93.3
X170.38Y-95.84
X170.38Y-98.38
X170.38Y-100.92
X170.38Y-103.46
X170.38Y-106.0
X174.42Y-58.84
X174.42Y-69.0
X178.0Y-88.22
X178.0Y-90.76
X178.0Y-93.3
X178.0Y-95.84
X178.0Y-98.38
X178.0Y-100.92
X178.0Y-103.46
X178.0Y-106.0
X196.5Y-85.5
X196.5Y-88.04
X196.5Y-90.58
X196.5Y-93.12
X196.5Y-95.66
X201.58Y-85.5
X201.58Y-88.04
X201.58Y-90.58
X201.58Y-93.12
X201.58Y-95.66
T3
X154.0Y-74.0
X154.0Y-76.54
X161.5Y-73.975
X161.5Y-76.515
X169.0Y-74.0
X169.0Y-76.54
X176.5Y-74.0
X176.5Y-76.54
T4
X126.8Y-81.5
X139.5Y-81.5
X156.5Y-124.5
X156.5Y-129.0
X163.0Y-124.5
X163.0Y-129.0
T5
X144.5Y-74.0
X144.5Y-77.0
T6
X112.5Y-81.617
X117.5Y-81.617
T7
X138.0Y-98.5
X138.0Y-106.7
T8
X114.0Y-63.0
X114.0Y-127.0
X198.0Y-63.0
X198.0Y-127.0
M30
