%TF.GenerationSoftware,KiCad,Pcbnew,9.0.3*%
%TF.CreationDate,2025-12-16T11:33:02+01:00*%
%TF.ProjectId,PTP_LV1,5054505f-4c56-4312-9e6b-696361645f70,rev?*%
%TF.SameCoordinates,Original*%
%TF.FileFunction,Soldermask,Top*%
%TF.FilePolarity,Negative*%
%FSLAX46Y46*%
G04 Gerber Fmt 4.6, Leading zero omitted, Abs format (unit mm)*
G04 Created by KiCad (PCBNEW 9.0.3) date 2025-12-16 11:33:02*
%MOMM*%
%LPD*%
G01*
G04 APERTURE LIST*
G04 Aperture macros list*
%AMRoundRect*
0 Rectangle with rounded corners*
0 $1 Rounding radius*
0 $2 $3 $4 $5 $6 $7 $8 $9 X,Y pos of 4 corners*
0 Add a 4 corners polygon primitive as box body*
4,1,4,$2,$3,$4,$5,$6,$7,$8,$9,$2,$3,0*
0 Add four circle primitives for the rounded corners*
1,1,$1+$1,$2,$3*
1,1,$1+$1,$4,$5*
1,1,$1+$1,$6,$7*
1,1,$1+$1,$8,$9*
0 Add four rect primitives between the rounded corners*
20,1,$1+$1,$2,$3,$4,$5,0*
20,1,$1+$1,$4,$5,$6,$7,0*
20,1,$1+$1,$6,$7,$8,$9,0*
20,1,$1+$1,$8,$9,$2,$3,0*%
G04 Aperture macros list end*
%ADD10RoundRect,0.150000X0.512500X0.150000X-0.512500X0.150000X-0.512500X-0.150000X0.512500X-0.150000X0*%
%ADD11RoundRect,0.250000X-0.550000X-0.550000X0.550000X-0.550000X0.550000X0.550000X-0.550000X0.550000X0*%
%ADD12C,1.600000*%
%ADD13R,1.600000X1.600000*%
%ADD14RoundRect,0.250000X-0.400000X-0.625000X0.400000X-0.625000X0.400000X0.625000X-0.400000X0.625000X0*%
%ADD15RoundRect,0.250000X0.625000X-0.400000X0.625000X0.400000X-0.625000X0.400000X-0.625000X-0.400000X0*%
%ADD16RoundRect,0.250000X0.650000X-0.412500X0.650000X0.412500X-0.650000X0.412500X-0.650000X-0.412500X0*%
%ADD17RoundRect,0.250000X-0.950000X-0.550000X0.950000X-0.550000X0.950000X0.550000X-0.950000X0.550000X0*%
%ADD18O,2.400000X1.600000*%
%ADD19R,1.800000X1.800000*%
%ADD20C,1.800000*%
%ADD21C,5.500000*%
%ADD22RoundRect,0.250000X0.950000X0.550000X-0.950000X0.550000X-0.950000X-0.550000X0.950000X-0.550000X0*%
%ADD23RoundRect,0.250001X-1.149999X-1.149999X1.149999X-1.149999X1.149999X1.149999X-1.149999X1.149999X0*%
%ADD24C,2.800000*%
%ADD25C,2.000000*%
%ADD26O,3.500000X2.200000*%
%ADD27R,2.500000X1.500000*%
%ADD28O,2.500000X1.500000*%
%ADD29RoundRect,0.249999X-0.850001X-0.850001X0.850001X-0.850001X0.850001X0.850001X-0.850001X0.850001X0*%
%ADD30C,2.200000*%
%ADD31RoundRect,0.250000X0.550000X0.550000X-0.550000X0.550000X-0.550000X-0.550000X0.550000X-0.550000X0*%
%ADD32C,2.400000*%
G04 APERTURE END LIST*
D10*
%TO.C,U6*%
X170637500Y-82450000D03*
X170637500Y-81500000D03*
X170637500Y-80550000D03*
X168362500Y-80550000D03*
X168362500Y-81500000D03*
X168362500Y-82450000D03*
%TD*%
D11*
%TO.C,U7*%
X117195000Y-97190000D03*
D12*
X117195000Y-99730000D03*
X117195000Y-102270000D03*
X117195000Y-104810000D03*
X124815000Y-104810000D03*
X124815000Y-102270000D03*
X124815000Y-99730000D03*
X124815000Y-97190000D03*
%TD*%
D13*
%TO.C,U5*%
X196500000Y-85500000D03*
D12*
X196500000Y-88040000D03*
X196500000Y-90580000D03*
X196500000Y-93120000D03*
X196500000Y-95660000D03*
X201580000Y-95660000D03*
X201580000Y-93120000D03*
X201580000Y-90580000D03*
X201580000Y-88040000D03*
X201580000Y-85500000D03*
%TD*%
D14*
%TO.C,R18*%
X182000000Y-92000000D03*
X185100000Y-92000000D03*
%TD*%
D15*
%TO.C,R7*%
X164000000Y-119050000D03*
X164000000Y-115950000D03*
%TD*%
%TO.C,R13*%
X160000000Y-119100000D03*
X160000000Y-116000000D03*
%TD*%
D16*
%TO.C,C5*%
X130000000Y-103500000D03*
X130000000Y-100375000D03*
%TD*%
D14*
%TO.C,R17*%
X182000000Y-89000000D03*
X185100000Y-89000000D03*
%TD*%
D17*
%TO.C,U4*%
X170380000Y-88220000D03*
D18*
X170380000Y-90760000D03*
X170380000Y-93300000D03*
X170380000Y-95840000D03*
X170380000Y-98380000D03*
X170380000Y-100920000D03*
X170380000Y-103460000D03*
X170380000Y-106000000D03*
X178000000Y-106000000D03*
X178000000Y-103460000D03*
X178000000Y-100920000D03*
X178000000Y-98380000D03*
X178000000Y-95840000D03*
X178000000Y-93300000D03*
X178000000Y-90760000D03*
X178000000Y-88220000D03*
%TD*%
D15*
%TO.C,R12*%
X176000000Y-119100000D03*
X176000000Y-116000000D03*
%TD*%
D19*
%TO.C,D2*%
X161500000Y-73975000D03*
D20*
X161500000Y-76515000D03*
%TD*%
D21*
%TO.C,H1*%
X114000000Y-63000000D03*
%TD*%
D16*
%TO.C,C4*%
X188062500Y-77062500D03*
X188062500Y-73937500D03*
%TD*%
D12*
%TO.C,R4*%
X174420000Y-69000000D03*
X174420000Y-58840000D03*
%TD*%
D19*
%TO.C,D1*%
X154000000Y-74000000D03*
D20*
X154000000Y-76540000D03*
%TD*%
D21*
%TO.C,H2*%
X198000000Y-63000000D03*
%TD*%
D14*
%TO.C,R5*%
X182000000Y-95000000D03*
X185100000Y-95000000D03*
%TD*%
D22*
%TO.C,U1*%
X138000000Y-73000000D03*
D18*
X138000000Y-70460000D03*
X138000000Y-67920000D03*
X138000000Y-65380000D03*
X130380000Y-65380000D03*
X130380000Y-67920000D03*
X130380000Y-70460000D03*
X130380000Y-73000000D03*
%TD*%
D23*
%TO.C,J1*%
X112500000Y-81617500D03*
D24*
X117500000Y-81617500D03*
%TD*%
D17*
%TO.C,U2*%
X146560000Y-88220000D03*
D18*
X146560000Y-90760000D03*
X146560000Y-93300000D03*
X146560000Y-95840000D03*
X146560000Y-98380000D03*
X146560000Y-100920000D03*
X146560000Y-103460000D03*
X146560000Y-106000000D03*
X154180000Y-106000000D03*
X154180000Y-103460000D03*
X154180000Y-100920000D03*
X154180000Y-98380000D03*
X154180000Y-95840000D03*
X154180000Y-93300000D03*
X154180000Y-90760000D03*
X154180000Y-88220000D03*
%TD*%
D25*
%TO.C,SW1*%
X156500000Y-124500000D03*
X163000000Y-124500000D03*
X156500000Y-129000000D03*
X163000000Y-129000000D03*
%TD*%
D14*
%TO.C,R6*%
X182000000Y-98000000D03*
X185100000Y-98000000D03*
%TD*%
%TO.C,R11*%
X182000000Y-86000000D03*
X185100000Y-86000000D03*
%TD*%
%TO.C,R14*%
X182000000Y-104500000D03*
X185100000Y-104500000D03*
%TD*%
D15*
%TO.C,R19*%
X110500000Y-105100000D03*
X110500000Y-102000000D03*
%TD*%
D12*
%TO.C,R2*%
X160500000Y-68760000D03*
X160500000Y-58600000D03*
%TD*%
D11*
%TO.C,C1*%
X123044888Y-62000000D03*
D12*
X125044888Y-62000000D03*
%TD*%
D21*
%TO.C,H4*%
X114000000Y-127000000D03*
%TD*%
D14*
%TO.C,R16*%
X182000000Y-108000000D03*
X185100000Y-108000000D03*
%TD*%
D17*
%TO.C,U3*%
X158500000Y-88220000D03*
D18*
X158500000Y-90760000D03*
X158500000Y-93300000D03*
X158500000Y-95840000D03*
X158500000Y-98380000D03*
X158500000Y-100920000D03*
X158500000Y-103460000D03*
X158500000Y-106000000D03*
X166120000Y-106000000D03*
X166120000Y-103460000D03*
X166120000Y-100920000D03*
X166120000Y-98380000D03*
X166120000Y-95840000D03*
X166120000Y-93300000D03*
X166120000Y-90760000D03*
X166120000Y-88220000D03*
%TD*%
D16*
%TO.C,C3*%
X156000000Y-119125000D03*
X156000000Y-116000000D03*
%TD*%
D15*
%TO.C,R9*%
X168000000Y-119100000D03*
X168000000Y-116000000D03*
%TD*%
D26*
%TO.C,SW2*%
X138000000Y-98500000D03*
X138000000Y-106700000D03*
D27*
X138000000Y-100600000D03*
D28*
X138000000Y-102600000D03*
X138000000Y-104600000D03*
%TD*%
D19*
%TO.C,D5*%
X176500000Y-74000000D03*
D20*
X176500000Y-76540000D03*
%TD*%
D29*
%TO.C,D4*%
X126800000Y-81500000D03*
D30*
X139500000Y-81500000D03*
%TD*%
D31*
%TO.C,C2*%
X146455113Y-62500000D03*
D12*
X144455113Y-62500000D03*
%TD*%
D21*
%TO.C,H3*%
X198000000Y-127000000D03*
%TD*%
D12*
%TO.C,R1*%
X155000000Y-68680000D03*
X155000000Y-58520000D03*
%TD*%
D14*
%TO.C,R8*%
X182000000Y-101000000D03*
X185100000Y-101000000D03*
%TD*%
D15*
%TO.C,R15*%
X180000000Y-119100000D03*
X180000000Y-116000000D03*
%TD*%
%TO.C,R10*%
X172500000Y-119100000D03*
X172500000Y-116000000D03*
%TD*%
D32*
%TO.C,L1*%
X144500000Y-77000000D03*
X144500000Y-74000000D03*
%TD*%
D12*
%TO.C,R3*%
X168000000Y-69000000D03*
X168000000Y-58840000D03*
%TD*%
D15*
%TO.C,R20*%
X110500000Y-99100000D03*
X110500000Y-96000000D03*
%TD*%
D19*
%TO.C,D3*%
X169000000Y-74000000D03*
D20*
X169000000Y-76540000D03*
%TD*%
M02*
